<?xml version="1.0" standalone="no"?>
<!DOCTYPE svg PUBLIC "-//W3C//DTD SVG 20010904//EN"
 "http://www.w3.org/TR/2001/REC-SVG-20010904/DTD/svg10.dtd">
<svg version="1.0" xmlns="http://www.w3.org/2000/svg"
 width="382.000000pt" height="244.000000pt" viewBox="0 0 382.000000 244.000000"
 preserveAspectRatio="xMidYMid meet">

<g transform="translate(0.000000,244.000000) scale(0.100000,-0.100000)"
fill="#000000" stroke="none">
<path d="M850 2417 c-88 -30 -145 -65 -208 -129 -236 -237 -164 -646 141 -792
371 -179 784 140 707 545 -24 126 -124 266 -237 332 -121 69 -279 87 -403 44z"/>
<path d="M2670 2253 c0 -5 36 -44 80 -88 44 -44 80 -84 80 -91 0 -6 -21 -37
-46 -70 -105 -134 -199 -305 -243 -444 -76 -237 -68 -475 21 -643 46 -85 186
-233 204 -214 3 2 -7 40 -22 83 -95 282 14 686 269 999 23 28 43 52 44 54 2 3
46 -37 98 -89 l95 -95 0 170 c0 94 3 227 7 297 l6 126 -69 4 c-150 8 -524 9
-524 1z"/>
<path d="M2028 1470 c-46 -14 -85 -48 -107 -93 -20 -42 -21 -58 -21 -490 0
-290 4 -455 11 -474 13 -34 55 -80 91 -99 22 -12 142 -14 710 -14 772 0 723
-5 783 79 l30 43 0 461 c0 511 2 494 -65 551 -51 42 -87 47 -340 44 l-235 -3
-26 -50 c-15 -27 -30 -60 -34 -72 l-6 -23 268 0 c196 0 272 -3 281 -12 9 -9
12 -119 12 -435 0 -407 -1 -423 -19 -433 -13 -6 -236 -10 -654 -10 -524 0
-637 2 -646 14 -8 9 -10 134 -9 442 l3 429 193 3 192 2 0 38 c0 20 3 54 6 75
l7 37 -199 -1 c-110 0 -211 -4 -226 -9z"/>
<path d="M870 1311 c-345 -37 -757 -225 -843 -385 -22 -40 -22 -49 -25 -484
l-3 -442 746 0 745 0 0 160 0 160 140 0 140 0 0 396 0 395 -92 44 c-116 54
-283 110 -408 135 -112 22 -294 32 -400 21z"/>
<path d="M1600 156 c0 -75 20 -108 84 -137 39 -18 89 -19 1020 -19 727 0 989
3 1018 12 22 6 53 24 69 39 27 25 29 33 29 98 l0 71 -1110 0 -1110 0 0 -64z
m1218 -28 c3 -16 -7 -18 -102 -18 -59 0 -108 4 -111 10 -15 24 10 31 108 28
88 -3 102 -5 105 -20z"/>
</g>
</svg>
