<?xml version="1.0" standalone="no"?>
<!DOCTYPE svg PUBLIC "-//W3C//DTD SVG 20010904//EN"
 "http://www.w3.org/TR/2001/REC-SVG-20010904/DTD/svg10.dtd">
<svg version="1.0" xmlns="http://www.w3.org/2000/svg"
 width="382.000000pt" height="244.000000pt" viewBox="0 0 382.000000 244.000000"
 preserveAspectRatio="xMidYMid meet">

<g transform="translate(0.000000,244.000000) scale(0.100000,-0.100000)"
fill="#000000" stroke="none">
<path d="M850 2417 c-88 -30 -145 -65 -208 -129 -236 -237 -164 -646 141 -792
371 -179 784 140 707 545 -24 126 -124 266 -237 332 -121 69 -279 87 -403 44z"/>
<path d="M3222 2235 c-333 -75 -602 -452 -663 -926 l-12 -89 -131 0 -131 0
213 -212 212 -213 212 213 213 212 -134 0 -134 0 7 63 c47 425 278 802 562
917 44 18 53 25 40 32 -30 17 -187 19 -254 3z"/>
<path d="M2028 1470 c-46 -14 -85 -48 -107 -93 -20 -42 -21 -58 -21 -490 0
-290 4 -455 11 -474 13 -34 55 -80 91 -99 22 -12 142 -14 710 -14 772 0 723
-5 783 79 l30 43 0 451 c0 249 -3 464 -7 479 -12 40 -57 89 -103 109 -35 16
-68 19 -247 19 -236 0 -208 12 -226 -97 l-9 -53 211 0 c152 0 215 -3 224 -12
9 -9 12 -119 12 -435 0 -407 -1 -423 -19 -433 -13 -6 -236 -10 -654 -10 -524
0 -637 2 -646 14 -8 9 -10 134 -9 442 l3 429 232 3 231 2 7 43 c3 23 9 57 12
75 l5 32 -243 -1 c-134 0 -256 -4 -271 -9z"/>
<path d="M870 1311 c-345 -37 -757 -225 -843 -385 -22 -40 -22 -49 -25 -484
l-3 -442 746 0 745 0 0 160 0 160 140 0 140 0 0 396 0 395 -92 44 c-116 54
-283 110 -408 135 -112 22 -294 32 -400 21z"/>
<path d="M1600 156 c0 -75 20 -108 84 -137 39 -18 89 -19 1020 -19 727 0 989
3 1018 12 22 6 53 24 69 39 27 25 29 33 29 98 l0 71 -1110 0 -1110 0 0 -64z
m1218 -28 c3 -16 -7 -18 -102 -18 -59 0 -108 4 -111 10 -15 24 10 31 108 28
88 -3 102 -5 105 -20z"/>
</g>
</svg>
