<svg width="170" height="66" viewBox="0 0 170 66" fill="none" xmlns="http://www.w3.org/2000/svg">
<!-- <path d="M195.21 41.1415H186.305L184.922 45.6803H180.201L188.752 20.8515H192.76L201.311 45.6803H196.593L195.21 41.1415ZM194.11 37.5584L190.776 26.704L187.405 37.5584H194.11Z" fill="#6485FF"/>
<path d="M203.69 32.5598C203.69 30.3593 203.641 28.8223 203.549 27.9487H207.31C207.428 29.0621 207.488 30.0999 207.488 31.0687H207.56C208.01 30.0046 208.779 29.1606 209.866 28.5333C210.953 27.906 212.159 27.594 213.486 27.594C215.542 27.594 217.093 28.2738 218.134 29.6335C219.176 30.9932 219.695 33.0097 219.695 35.6798V45.6836H215.651V35.6469C215.651 33.9917 215.385 32.7732 214.853 31.9949C214.32 31.2165 213.473 30.8257 212.317 30.8257C210.943 30.8257 209.833 31.3052 208.982 32.2609C208.131 33.2166 207.704 34.4548 207.704 35.9688V45.6869H203.697V32.563L203.69 32.5598Z" fill="#6485FF"/>
<path d="M238.635 27.9487L232 46.3568C231.241 48.4358 230.219 50.0056 228.931 51.0566C227.64 52.1075 226.123 52.6363 224.372 52.6363C223.544 52.6363 222.68 52.5181 221.783 52.2816V49.1254C222.302 49.3159 222.966 49.4079 223.771 49.4079C224.858 49.4079 225.794 49.0236 226.573 48.2551C227.355 47.4866 228.074 46.2288 228.738 44.4783L222.138 27.9487H226.395L230.58 40.0807L234.342 27.9487H238.635Z" fill="#6485FF"/>
<path d="M263.292 27.9487L258.785 45.6836H255.201L251.403 32.2412L247.606 45.6836H244.058L239.551 27.9487H243.736L246.183 39.7949L249.626 27.9487H253.21L256.653 39.8672L259.1 27.9487H263.285H263.292Z" fill="#6485FF"/> -->
<path d="M265.599 19.3637H269.607V30.2542C270.152 29.4266 270.931 28.7763 271.949 28.3034C272.964 27.8305 274.064 27.594 275.247 27.594C277.28 27.594 278.897 28.2673 280.089 29.6171C281.285 30.9636 281.88 32.8225 281.88 35.1872V45.6869H277.836V35.4006C277.836 33.8866 277.52 32.7108 276.896 31.8701C276.269 31.0293 275.388 30.6122 274.252 30.6122C272.856 30.6122 271.732 31.1081 270.881 32.1033C270.03 33.0951 269.603 34.3956 269.603 36.0049V45.6869H265.596V19.367L265.599 19.3637Z" fill="#6485FF"/>
<path d="M301.5 38.3039H289.011C289.411 41.1907 290.985 42.6325 293.728 42.6325C294.769 42.6325 295.692 42.442 296.494 42.0643C297.299 41.6867 298.041 41.0955 298.728 40.2909L300.929 42.3829C300.242 43.4963 299.23 44.3797 297.897 45.0431C296.56 45.7033 295.098 46.035 293.514 46.035C290.794 46.035 288.676 45.2238 287.164 43.6046C285.65 41.9855 284.895 39.7325 284.895 36.849C284.895 33.9654 285.657 31.6993 287.184 30.0572C288.708 28.4151 290.798 27.5907 293.445 27.5907C296.093 27.5907 297.952 28.4052 299.372 30.0375C300.791 31.6697 301.5 33.926 301.5 36.8128V38.3039ZM297.634 35.289C297.634 33.8932 297.256 32.8061 296.497 32.0244C295.738 31.2428 294.687 30.8552 293.34 30.8552C292.112 30.8552 291.123 31.2625 290.377 32.0803C289.632 32.898 289.165 34.0377 288.975 35.5024H297.631V35.289H297.634Z" fill="#6485FF"/>
<path d="M304.765 32.274C304.765 30.2641 304.729 28.8223 304.66 27.9454H308.458C308.553 28.8683 308.599 29.9094 308.599 31.0654V31.4201H308.704C309.154 30.2378 309.923 29.3051 311.01 28.6187C312.097 27.9323 313.352 27.5907 314.771 27.5907C315.198 27.5907 315.553 27.6268 315.836 27.6958V30.8881C315.599 30.8421 315.281 30.8158 314.877 30.8158C313.766 30.8158 312.741 31.118 311.808 31.719C310.872 32.3233 310.136 33.1444 309.591 34.1855C309.046 35.2266 308.776 36.3498 308.776 37.5551V45.677H304.769V32.2708L304.765 32.274Z" fill="#6485FF"/>
<path d="M334 38.3039H321.511C321.911 41.1907 323.485 42.6325 326.228 42.6325C327.269 42.6325 328.192 42.442 328.994 42.0643C329.799 41.6867 330.541 41.0955 331.228 40.2909L333.429 42.3829C332.742 43.4963 331.73 44.3797 330.397 45.0431C329.06 45.7033 327.598 46.035 326.014 46.035C323.294 46.035 321.176 45.2238 319.664 43.6046C318.15 41.9855 317.395 39.7325 317.395 36.849C317.395 33.9654 318.157 31.6993 319.684 30.0572C321.208 28.4151 323.298 27.5907 325.945 27.5907C328.593 27.5907 330.452 28.4052 331.872 30.0375C333.291 31.6697 334 33.926 334 36.8128V38.3039ZM330.134 35.289C330.134 33.8932 329.756 32.8061 328.997 32.0244C328.238 31.2428 327.187 30.8552 325.84 30.8552C324.612 30.8552 323.623 31.2625 322.877 32.0803C322.132 32.898 321.665 34.0377 321.475 35.5024H330.131V35.289H330.134Z" fill="#6485FF"/>
<path d="M146.791 34.3597H147.327C150.313 34.3597 153.082 35.7719 154.981 38.0774C156.509 39.933 158.838 41.0989 161.436 41.0431C165.615 40.9511 169.103 37.6176 169.366 33.4467C169.668 28.7272 165.91 24.7894 161.255 24.7894C158.69 24.7894 156.4 25.9849 154.909 27.847C153.03 30.1953 150.119 31.4761 147.11 31.4761H146.791C143.598 31.4761 140.639 29.8931 138.792 27.2854C136.838 24.5267 133.49 22.8222 129.785 23.2064C125.117 23.6892 121.408 27.535 121.083 32.2151C120.685 37.9132 125.209 42.6754 130.823 42.6754C134.147 42.6754 137.088 41.007 138.852 38.4617C140.652 35.8671 143.635 34.3531 146.795 34.3531L146.791 34.3597Z" fill="#6485FF"/>
<path d="M161.336 38.0906C164.148 38.0906 166.428 35.8114 166.428 33C166.428 30.1886 164.148 27.9094 161.336 27.9094C158.524 27.9094 156.244 30.1886 156.244 33C156.244 35.8114 158.524 38.0906 161.336 38.0906Z" fill="#AC239E"/>
<path d="M68.026 11.7608H94.4244L97.7423 0.105095H63.9165L31.0926 44.0744L0 0.105095V65.9671H11.6585V36.7801L31.0894 64.1674L62.0835 23.1473V17.7053C62.0835 14.4244 64.7443 11.7641 68.026 11.7641" fill="#6485FF"/>
<path d="M62.7034 47.7232V40.5702H88.5039L92.0123 27.8832L62.7067 27.893L50.9727 42.4717V54.2326C50.9727 60.7124 56.2254 65.9639 62.7067 65.9639H96.1843L98.5528 54.3081H69.2965C65.6567 54.3081 62.7067 51.3589 62.7067 47.7199" fill="#AC239E"/>
<path fill-rule="evenodd" clip-rule="evenodd" d="M102.729 50.3999C101.793 48.8957 100.975 47.3094 100.288 45.6542C99.5624 43.9037 98.9843 42.0842 98.5638 40.2056C98.1039 38.1365 97.8378 35.9952 97.7852 33.8014C97.782 33.5353 97.7754 33.266 97.7754 32.9967C97.7754 30.5467 98.0448 28.1558 98.5506 25.8502C99.7562 20.4017 102.312 15.4556 105.843 11.3799L109.171 8.05624C113.248 4.52568 118.192 1.97055 123.645 0.765232L112.627 11.7806C111.53 12.7166 110.511 13.7412 109.572 14.8349L109.562 14.8448C106.339 18.6085 104.099 23.2458 103.245 28.3462C102.992 29.857 102.861 31.417 102.861 32.9967C102.861 33.936 102.907 34.8654 102.995 35.7752C103.199 37.8245 103.619 39.8148 104.244 41.7065C104.815 43.4504 105.554 45.1221 106.438 46.6953C107.289 48.1994 108.274 49.6215 109.378 50.9352C110.469 52.2358 111.674 53.4345 112.978 54.515C114.302 55.6153 115.735 56.594 117.246 57.4347C118.829 58.3149 120.508 59.044 122.259 59.599C124.174 60.2132 126.171 60.6237 128.234 60.8142C129.075 60.8897 129.929 60.9291 130.796 60.9291C132.482 60.9291 134.134 60.7781 135.737 60.4923C142.33 59.3133 148.115 55.832 152.241 50.9024L152.376 51.037L155.841 54.5019C151.334 59.7435 145.214 63.5532 138.25 65.156C135.855 65.711 133.359 66 130.793 66H130.221C128.017 65.9606 125.862 65.7044 123.78 65.2611C121.884 64.8505 120.054 64.2758 118.3 63.5565C116.638 62.8833 115.045 62.0721 113.534 61.1426C112.065 60.2427 110.679 59.2279 109.371 58.1178C108.08 57.0176 106.881 55.8222 105.771 54.5314C104.657 53.2407 103.636 51.8548 102.729 50.3966V50.3999Z" fill="#6485FF"/>
<path fill-rule="evenodd" clip-rule="evenodd" d="M145.188 43.8544L148.624 47.293C144.935 51.8942 139.505 55.0241 133.329 55.7072C132.495 55.8024 131.644 55.8484 130.79 55.8484C129.295 55.8484 127.84 55.7039 126.424 55.4346C124.526 55.0635 122.716 54.4658 121.014 53.6644C119.431 52.9156 117.949 51.9862 116.589 50.9057C115.259 49.8547 114.05 48.6494 112.982 47.3291C111.898 45.9793 110.962 44.5047 110.196 42.9348C109.382 41.2434 108.771 39.4437 108.39 37.5585C108.091 36.0839 107.93 34.5633 107.93 32.9934C107.93 32.2348 107.969 31.4695 108.045 30.7175C108.511 26.0111 110.407 21.7219 113.291 18.2932L116.083 15.5016L126.135 5.45184L131.592 3.8147e-06C133.786 0.0558358 135.928 0.321859 137.994 0.781652L133.566 5.20552L128.51 10.26L119.516 19.2555C118.613 19.9944 117.781 20.8253 117.042 21.7252C114.536 24.7796 113.025 28.6845 113.012 32.9343V32.9934C113.012 35.1249 113.386 37.1644 114.073 39.0594C114.684 40.7442 115.538 42.3108 116.602 43.7132C117.627 45.063 118.842 46.2716 120.209 47.2831C121.628 48.3341 123.205 49.1782 124.9 49.7726C126.746 50.4229 128.724 50.771 130.79 50.771C130.892 50.771 130.99 50.7644 131.089 50.7644C136.779 50.6692 141.815 47.9104 145.001 43.6705L145.185 43.8511L145.188 43.8544Z" fill="#AC239E"/>
<path fill-rule="evenodd" clip-rule="evenodd" d="M135.352 10.6048L130.727 15.2257H130.792C132.918 15.2257 134.958 15.6001 136.853 16.2865L140.723 12.4177L144.484 8.65725L148.193 4.94606C146.688 4.01006 145.102 3.19557 143.446 2.50588L139.501 6.45681L135.349 10.6081L135.352 10.6048Z" fill="#6485FF"/>
<path fill-rule="evenodd" clip-rule="evenodd" d="M145.122 15.1962L141.502 18.8154C142.855 19.8401 144.064 21.0552 145.076 22.4248L148.696 18.799L152.306 15.1929L155.913 11.5835C154.813 10.2928 153.614 9.09405 152.333 7.98398L148.726 11.5901L145.119 15.1962H145.122Z" fill="#AC239E"/>
</svg>
