<svg width="200" height="123" viewBox="0 0 200 123" fill="none" xmlns="http://www.w3.org/2000/svg">
<path d="M18.5446 108.525H8.0291L6.39612 113.886H0.822266L10.9188 84.562H15.651L25.7475 113.886H20.1775L18.5446 108.525ZM17.2452 104.293L13.3082 91.474L9.3285 104.293H17.2452Z" fill="#6485FF"/>
<path d="M28.5555 98.3899C28.5555 95.7911 28.4973 93.9759 28.3887 92.9441H32.8299C32.9695 94.259 33.0394 95.4847 33.0394 96.629H33.1247C33.6561 95.3722 34.5637 94.3754 35.8476 93.6345C37.1315 92.8937 38.555 92.5252 40.1221 92.5252C42.5502 92.5252 44.381 93.3281 45.6106 94.9339C46.8402 96.5397 47.453 98.9213 47.453 102.075V113.89H42.6782V102.036C42.6782 100.081 42.364 98.6421 41.7357 97.7228C41.1073 96.8035 40.1066 96.3419 38.7412 96.3419C37.1199 96.3419 35.8088 96.9082 34.8042 98.037C33.7996 99.1657 33.2954 100.628 33.2954 102.416V113.894H28.5632V98.3938L28.5555 98.3899Z" fill="#6485FF"/>
<path d="M69.8182 92.9441L61.983 114.685C61.087 117.14 59.8807 118.994 58.3602 120.235C56.8358 121.477 55.0438 122.101 52.9764 122.101C51.999 122.101 50.9788 121.961 49.9199 121.682V117.955C50.5328 118.18 51.3163 118.288 52.2666 118.288C53.5505 118.288 54.6559 117.834 55.5752 116.927C56.4984 116.019 57.3478 114.534 58.1314 112.466L50.3388 92.9441H55.3658L60.3074 107.272L64.7486 92.9441H69.8182Z" fill="#6485FF"/>
<path d="M98.9326 92.9441L93.6108 113.89H89.379L84.8951 98.0137L80.4112 113.89H76.2221L70.9004 92.9441H75.842L78.7317 106.935L82.7967 92.9441H87.0285L91.0935 107.02L93.9832 92.9441H98.9248H98.9326Z" fill="#6485FF"/>
<path d="M101.656 82.8049H106.388V95.667C107.032 94.6895 107.952 93.9215 109.154 93.363C110.353 92.8044 111.652 92.5252 113.048 92.5252C115.449 92.5252 117.358 93.3203 118.766 94.9145C120.178 96.5048 120.88 98.7002 120.88 101.493V113.894H116.105V101.745C116.105 99.957 115.732 98.5684 114.995 97.5754C114.255 96.5824 113.215 96.0898 111.873 96.0898C110.225 96.0898 108.898 96.6755 107.893 97.8508C106.889 99.0222 106.384 100.558 106.384 102.459V113.894H101.652V82.8088L101.656 82.8049Z" fill="#6485FF"/>
<path d="M144.047 105.174H129.3C129.773 108.583 131.631 110.286 134.87 110.286C136.099 110.286 137.189 110.061 138.136 109.615C139.086 109.169 139.962 108.471 140.773 107.521L143.372 109.991C142.561 111.306 141.367 112.35 139.792 113.133C138.213 113.913 136.487 114.305 134.617 114.305C131.406 114.305 128.904 113.347 127.12 111.434C125.332 109.522 124.439 106.861 124.439 103.456C124.439 100.05 125.339 97.3737 127.143 95.4343C128.943 93.4949 131.41 92.5213 134.536 92.5213C137.662 92.5213 139.858 93.4832 141.533 95.411C143.209 97.3388 144.047 100.004 144.047 103.413V105.174ZM139.481 101.613C139.481 99.9647 139.035 98.6809 138.139 97.7577C137.243 96.8345 136.002 96.3768 134.412 96.3768C132.961 96.3768 131.794 96.8578 130.913 97.8236C130.033 98.7895 129.482 100.135 129.257 101.865H139.478V101.613H139.481Z" fill="#6485FF"/>
<path d="M147.903 98.0525C147.903 95.6787 147.861 93.9759 147.779 92.9402H152.263C152.376 94.0302 152.43 95.2597 152.43 96.6251V97.044H152.554C153.086 95.6476 153.993 94.546 155.277 93.7354C156.561 92.9247 158.043 92.5213 159.718 92.5213C160.223 92.5213 160.641 92.564 160.975 92.6454V96.4156C160.696 96.3613 160.319 96.3303 159.842 96.3303C158.531 96.3303 157.321 96.6871 156.22 97.397C155.114 98.1107 154.245 99.0804 153.601 100.31C152.958 101.54 152.639 102.866 152.639 104.29V113.882H147.907V98.0486L147.903 98.0525Z" fill="#6485FF"/>
<path d="M182.42 105.174H167.673C168.146 108.583 170.004 110.286 173.243 110.286C174.472 110.286 175.562 110.061 176.509 109.615C177.459 109.169 178.336 108.471 179.146 107.521L181.745 109.991C180.934 111.306 179.74 112.35 178.165 113.133C176.586 113.913 174.86 114.305 172.99 114.305C169.779 114.305 167.277 113.347 165.493 111.434C163.705 109.522 162.812 106.861 162.812 103.456C162.812 100.05 163.712 97.3737 165.516 95.4343C167.316 93.4949 169.783 92.5213 172.909 92.5213C176.035 92.5213 178.231 93.4832 179.906 95.411C181.582 97.3388 182.42 100.004 182.42 103.413V105.174ZM177.855 101.613C177.855 99.9647 177.408 98.6809 176.512 97.7577C175.616 96.8345 174.375 96.3768 172.785 96.3768C171.334 96.3768 170.167 96.8578 169.286 97.8236C168.406 98.7895 167.855 100.135 167.63 101.865H177.851V101.613H177.855Z" fill="#6485FF"/>
<path d="M80.3224 13.89H111.493L115.41 0.124115H75.47L36.7129 52.0536L0 0.124115V77.9098H13.7659V43.4388L36.7091 75.7842L73.3057 27.3379V20.9107C73.3057 17.0357 76.4475 13.8939 80.3224 13.8939" fill="#6485FF"/>
<path d="M74.0387 56.363V47.9149H104.503L108.645 32.9311L74.0426 32.9427L60.1875 50.1608V64.0508C60.1875 71.7037 66.3897 77.9059 74.0426 77.9059H113.572L116.368 64.14H81.8235C77.5258 64.14 74.0426 60.6568 74.0426 56.3591" fill="#AC239E"/>
<path fill-rule="evenodd" clip-rule="evenodd" d="M121.298 59.5243C120.193 57.7478 119.227 55.8743 118.417 53.9194C117.559 51.852 116.877 49.7031 116.38 47.4844C115.837 45.0408 115.523 42.5118 115.461 39.9207C115.457 39.6066 115.449 39.2885 115.449 38.9704C115.449 36.0768 115.767 33.2531 116.365 30.5301C117.788 24.0952 120.806 18.2537 124.976 13.4401L128.905 9.51474C133.718 5.34502 139.556 2.3273 145.995 0.903778L132.985 13.9133C131.69 15.0188 130.487 16.229 129.378 17.5206L129.366 17.5322C125.561 21.9774 122.916 27.4542 121.907 33.478C121.609 35.2623 121.454 37.1047 121.454 38.9704C121.454 40.0798 121.508 41.1775 121.613 42.2519C121.853 44.6723 122.35 47.0228 123.087 49.257C123.762 51.3167 124.634 53.291 125.678 55.149C126.682 56.9254 127.846 58.605 129.149 60.1565C130.437 61.6925 131.86 63.1083 133.4 64.3844C134.964 65.6838 136.655 66.8397 138.439 67.8327C140.309 68.8722 142.291 69.7333 144.358 70.3888C146.619 71.1141 148.978 71.599 151.414 71.824C152.407 71.9132 153.415 71.9597 154.439 71.9597C156.429 71.9597 158.38 71.7813 160.273 71.4438C168.058 70.0513 174.888 65.9398 179.76 60.1177L179.919 60.2767L184.011 64.3689C178.689 70.5595 171.463 75.0589 163.24 76.9518C160.412 77.6073 157.464 77.9486 154.435 77.9486H153.76C151.158 77.9021 148.613 77.5995 146.154 77.0759C143.916 76.591 141.755 75.9122 139.684 75.0628C137.721 74.2676 135.84 73.3095 134.056 72.2118C132.322 71.149 130.685 69.9505 129.141 68.6395C127.617 67.3401 126.201 65.9282 124.89 64.4038C123.575 62.8794 122.369 61.2426 121.298 59.5204V59.5243Z" fill="#6485FF"/>
<path fill-rule="evenodd" clip-rule="evenodd" d="M171.433 51.7938L175.49 55.8549C171.134 61.2891 164.723 64.9856 157.43 65.7924C156.445 65.9049 155.441 65.9592 154.432 65.9592C152.667 65.9592 150.949 65.7885 149.277 65.4705C147.035 65.0322 144.898 64.3262 142.889 63.3798C141.019 62.4954 139.27 61.3977 137.664 60.1216C136.093 58.8804 134.666 57.4568 133.405 55.8976C132.125 54.3034 131.02 52.5618 130.116 50.7077C129.154 48.7101 128.432 46.5845 127.982 44.3581C127.63 42.6165 127.439 40.8206 127.439 38.9665C127.439 38.0705 127.486 37.1668 127.575 36.2785C128.126 30.7202 130.364 25.6545 133.77 21.605L137.067 18.308L148.936 6.43883L155.379 0C157.97 0.0659398 160.499 0.380124 162.938 0.923157L157.71 6.14792L151.74 12.1174L141.12 22.7415C140.053 23.6142 139.072 24.5955 138.199 25.6583C135.24 29.2656 133.455 33.8775 133.44 38.8967V38.9665C133.44 41.4839 133.882 43.8926 134.693 46.1307C135.414 48.1205 136.423 49.9707 137.68 51.627C138.89 53.2212 140.325 54.6486 141.938 55.8433C143.614 57.0845 145.476 58.0813 147.477 58.7834C149.657 59.5514 151.992 59.9625 154.432 59.9625C154.552 59.9625 154.669 59.9548 154.785 59.9548C161.503 59.8423 167.449 56.5841 171.212 51.5766L171.429 51.7899L171.433 51.7938Z" fill="#AC239E"/>
<path fill-rule="evenodd" clip-rule="evenodd" d="M159.819 12.5247L154.357 17.9822H154.435C156.945 17.9822 159.353 18.4244 161.591 19.235L166.161 14.6658L170.602 10.2245L174.981 5.84149C173.205 4.73603 171.331 3.77408 169.376 2.95953L164.718 7.62574L159.815 12.5286L159.819 12.5247Z" fill="#6485FF"/>
<path fill-rule="evenodd" clip-rule="evenodd" d="M171.355 17.9473L167.08 22.2217C168.678 23.4319 170.106 24.8671 171.3 26.4845L175.575 22.2023L179.837 17.9434L184.096 13.6806C182.797 12.1562 181.381 10.7404 179.869 9.42938L175.61 13.6883L171.351 17.9473H171.355Z" fill="#AC239E"/>
<path d="M173.324 40.5801H173.956C177.482 40.5801 180.752 42.248 182.994 44.9709C184.797 47.1625 187.547 48.5394 190.616 48.4735C195.549 48.3649 199.669 44.4279 199.979 39.5018C200.336 33.928 195.898 29.2773 190.402 29.2773C187.373 29.2773 184.669 30.6892 182.908 32.8884C180.69 35.6618 177.253 37.1745 173.7 37.1745H173.324C169.554 37.1745 166.059 35.3049 163.879 32.2252C161.571 28.967 157.618 26.9539 153.243 27.4077C147.731 27.9779 143.352 32.52 142.968 38.0473C142.499 44.777 147.84 50.4013 154.469 50.4013C158.394 50.4013 161.866 48.4308 163.949 45.4248C166.074 42.3605 169.596 40.5724 173.328 40.5724L173.324 40.5801Z" fill="#6485FF"/>
<path d="M190.498 44.9864C193.819 44.9864 196.511 42.2947 196.511 38.9743C196.511 35.6539 193.819 32.9621 190.498 32.9621C187.178 32.9621 184.486 35.6539 184.486 38.9743C184.486 42.2947 187.178 44.9864 190.498 44.9864Z" fill="#AC239E"/>
</svg>
