<svg width="200" height="66" viewBox="0 0 200 66" fill="none" xmlns="http://www.w3.org/2000/svg">
<path d="M146.791 34.3597H147.327C150.313 34.3597 153.082 35.7719 154.981 38.0774C156.509 39.933 158.838 41.0989 161.436 41.0431C165.615 40.9511 169.103 37.6176 169.366 33.4467C169.668 28.7272 165.91 24.7894 161.255 24.7894C158.69 24.7894 156.4 25.9849 154.909 27.847C153.03 30.1953 150.119 31.4761 147.11 31.4761H146.791C143.598 31.4761 140.639 29.8931 138.792 27.2854C136.838 24.5267 133.49 22.8222 129.785 23.2064C125.117 23.6892 121.408 27.535 121.083 32.2151C120.685 37.9132 125.209 42.6754 130.823 42.6754C134.147 42.6754 137.088 41.007 138.852 38.4617C140.652 35.8671 143.635 34.3531 146.795 34.3531L146.791 34.3597Z" fill="#829CFF"/>
<path d="M161.336 38.0906C164.148 38.0906 166.428 35.8114 166.428 33C166.428 30.1886 164.148 27.9094 161.336 27.9094C158.524 27.9094 156.244 30.1886 156.244 33C156.244 35.8114 158.524 38.0906 161.336 38.0906Z" fill="#829CFF"/>
<path d="M68.026 11.7608H94.4244L97.7423 0.105095H63.9165L31.0926 44.0744L0 0.105095V65.9671H11.6585V36.7801L31.0894 64.1674L62.0835 23.1473V17.7053C62.0835 14.4244 64.7443 11.7641 68.026 11.7641" fill="#829CFF"/>
<path d="M62.7034 47.7232V40.5702H88.5039L92.0123 27.8832L62.7067 27.893L50.9727 42.4717V54.2326C50.9727 60.7124 56.2254 65.9639 62.7067 65.9639H96.1843L98.5528 54.3081H69.2965C65.6567 54.3081 62.7067 51.3589 62.7067 47.7199" fill="#829CFF"/>
<path fill-rule="evenodd" clip-rule="evenodd" d="M102.729 50.3999C101.793 48.8957 100.975 47.3094 100.288 45.6542C99.5624 43.9037 98.9843 42.0842 98.5638 40.2056C98.1039 38.1365 97.8378 35.9952 97.7852 33.8014C97.782 33.5353 97.7754 33.266 97.7754 32.9967C97.7754 30.5467 98.0448 28.1558 98.5506 25.8502C99.7562 20.4017 102.312 15.4556 105.843 11.3799L109.171 8.05624C113.248 4.52568 118.192 1.97055 123.645 0.765232L112.627 11.7806C111.53 12.7166 110.511 13.7412 109.572 14.8349L109.562 14.8448C106.339 18.6085 104.099 23.2458 103.245 28.3462C102.992 29.857 102.861 31.417 102.861 32.9967C102.861 33.936 102.907 34.8654 102.995 35.7752C103.199 37.8245 103.619 39.8148 104.244 41.7065C104.815 43.4504 105.554 45.1221 106.438 46.6953C107.289 48.1994 108.274 49.6215 109.378 50.9352C110.469 52.2358 111.674 53.4345 112.978 54.515C114.302 55.6153 115.735 56.594 117.246 57.4347C118.829 58.3149 120.508 59.044 122.259 59.599C124.174 60.2132 126.171 60.6237 128.234 60.8142C129.075 60.8897 129.929 60.9291 130.796 60.9291C132.482 60.9291 134.134 60.7781 135.737 60.4923C142.33 59.3133 148.115 55.832 152.241 50.9024L152.376 51.037L155.841 54.5019C151.334 59.7435 145.214 63.5532 138.25 65.156C135.855 65.711 133.359 66 130.793 66H130.221C128.017 65.9606 125.862 65.7044 123.78 65.2611C121.884 64.8505 120.054 64.2758 118.3 63.5565C116.638 62.8833 115.045 62.0721 113.534 61.1426C112.065 60.2427 110.679 59.2279 109.371 58.1178C108.08 57.0176 106.881 55.8222 105.771 54.5314C104.657 53.2407 103.636 51.8548 102.729 50.3966V50.3999Z" fill="#829CFF"/>
<path fill-rule="evenodd" clip-rule="evenodd" d="M145.188 43.8544L148.624 47.293C144.935 51.8942 139.505 55.0241 133.329 55.7072C132.495 55.8024 131.644 55.8484 130.79 55.8484C129.295 55.8484 127.84 55.7039 126.424 55.4346C124.526 55.0635 122.716 54.4658 121.014 53.6644C119.431 52.9156 117.949 51.9862 116.589 50.9057C115.259 49.8547 114.05 48.6494 112.982 47.3291C111.898 45.9793 110.962 44.5047 110.196 42.9348C109.382 41.2434 108.771 39.4437 108.39 37.5585C108.091 36.0839 107.93 34.5633 107.93 32.9934C107.93 32.2348 107.969 31.4695 108.045 30.7175C108.511 26.0111 110.407 21.7219 113.291 18.2932L116.083 15.5016L126.135 5.45184L131.592 3.8147e-06C133.786 0.0558358 135.928 0.321859 137.994 0.781652L133.566 5.20552L128.51 10.26L119.516 19.2555C118.613 19.9944 117.781 20.8253 117.042 21.7252C114.536 24.7796 113.025 28.6845 113.012 32.9343V32.9934C113.012 35.1249 113.386 37.1644 114.073 39.0594C114.684 40.7442 115.538 42.3108 116.602 43.7132C117.627 45.063 118.842 46.2716 120.209 47.2831C121.628 48.3341 123.205 49.1782 124.9 49.7726C126.746 50.4229 128.724 50.771 130.79 50.771C130.892 50.771 130.99 50.7644 131.089 50.7644C136.779 50.6692 141.815 47.9104 145.001 43.6705L145.185 43.8511L145.188 43.8544Z" fill="#829CFF"/>
<path fill-rule="evenodd" clip-rule="evenodd" d="M135.352 10.6048L130.727 15.2257H130.792C132.918 15.2257 134.958 15.6001 136.853 16.2865L140.723 12.4177L144.484 8.65725L148.193 4.94606C146.688 4.01006 145.102 3.19557 143.446 2.50588L139.501 6.45681L135.349 10.6081L135.352 10.6048Z" fill="#829CFF"/>
<path fill-rule="evenodd" clip-rule="evenodd" d="M145.122 15.1962L141.502 18.8154C142.855 19.8401 144.064 21.0552 145.076 22.4248L148.696 18.799L152.306 15.1929L155.913 11.5835C154.813 10.2928 153.614 9.09405 152.333 7.98398L148.726 11.5901L145.119 15.1962H145.122Z" fill="#829CFF"/>
</svg>
