<svg id="ad5253b4-6866-4c91-96fb-e19f65360795" data-name="Layer 1" xmlns="http://www.w3.org/2000/svg" viewBox="0 0 986.97 461"><defs><style>.a1ea68be-a3c5-4d82-9aa2-fdba7d89381d{fill:#2b328c;}.e6d3de3d-edec-4038-bcab-c263a5e65b00{fill:#fff;}</style></defs><rect class="a1ea68be-a3c5-4d82-9aa2-fdba7d89381d" x="62.66" y="59.89" width="924.3" height="401.11"/><rect class="a1ea68be-a3c5-4d82-9aa2-fdba7d89381d" width="58.13" height="58.13"/><path class="e6d3de3d-edec-4038-bcab-c263a5e65b00" d="M114.26,133.27c.4.33.91.76,1.54,1.31a19.27,19.27,0,0,0,2.14,1.62,18.25,18.25,0,0,0,3.58,1.85,10.56,10.56,0,0,0,3.72.66,9.71,9.71,0,0,0,3-.4,5.11,5.11,0,0,0,1.94-1.06,3.86,3.86,0,0,0,1-1.53,5.93,5.93,0,0,0,.3-1.85,2.66,2.66,0,0,0-.84-1.93,8.35,8.35,0,0,0-2-1.52,17.18,17.18,0,0,0-2.51-1.13c-.87-.32-1.63-.58-2.27-.79a51.22,51.22,0,0,1-7.44-3.15,22.54,22.54,0,0,1-5.31-3.77,13.36,13.36,0,0,1-4.26-10.12,12.91,12.91,0,0,1,1.33-5.89A13.05,13.05,0,0,1,112,101a18.3,18.3,0,0,1,5.94-2.91,27.45,27.45,0,0,1,7.76-1,26,26,0,0,1,6.18.72,23.73,23.73,0,0,1,5.83,2.28c.81.47,1.57,1,2.29,1.45a22,22,0,0,1,1.89,1.45,8.4,8.4,0,0,1,1.3,1.32,1.91,1.91,0,0,1,.48,1.09,1.52,1.52,0,0,1-.24.83,4.64,4.64,0,0,1-.69.87l-5.42,5.69a1.75,1.75,0,0,1-1.2.59,1.58,1.58,0,0,1-.91-.28c-.27-.18-.57-.42-.9-.69l-.32-.28c-.47-.4-1-.81-1.57-1.23a15.73,15.73,0,0,0-1.87-1.13,13.22,13.22,0,0,0-2.09-.84,7.67,7.67,0,0,0-2.23-.33,11.84,11.84,0,0,0-2.2.2,5.62,5.62,0,0,0-1.8.61,3.4,3.4,0,0,0-1.25,1.09,3,3,0,0,0-.46,1.66,2.88,2.88,0,0,0,.5,1.69,4.91,4.91,0,0,0,1.49,1.33,13.55,13.55,0,0,0,2.46,1.15q1.47.54,3.42,1.17c2.51.81,4.81,1.66,6.93,2.56a23.21,23.21,0,0,1,5.47,3.18,13,13,0,0,1,3.6,4.37,13.57,13.57,0,0,1,1.3,6.18,15.17,15.17,0,0,1-1.6,7,15.8,15.8,0,0,1-4.38,5.31,20.57,20.57,0,0,1-6.53,3.41,26.45,26.45,0,0,1-8.08,1.2,23.12,23.12,0,0,1-8-1.44,30.57,30.57,0,0,1-7.34-3.84,19.81,19.81,0,0,1-2.39-2c-.65-.65-1.16-1.18-1.54-1.57l-.11-.11s0-.07-.07-.08,0,0-.07-.06a.35.35,0,0,0-.07-.09.15.15,0,0,1-.07-.05,2.4,2.4,0,0,1-.82-1.4,2,2,0,0,1,.82-1.33l6.13-5.75a2.3,2.3,0,0,1,1.2-.52,1.25,1.25,0,0,1,.68.21A6.73,6.73,0,0,1,114.26,133.27Z"/><path class="e6d3de3d-edec-4038-bcab-c263a5e65b00" d="M152.64,90.79a2.26,2.26,0,0,1,2.62-2.69h8.22a3.14,3.14,0,0,1,2,.61,2.52,2.52,0,0,1,.77,2.08v6.8a2.5,2.5,0,0,1-.2.91,3.78,3.78,0,0,1-.55.94,3.14,3.14,0,0,1-.87.75,2.22,2.22,0,0,1-1.15.3h-8.22c-1.75,0-2.62-1-2.62-2.9Zm0,17.65a3,3,0,0,1,.63-1.92,2.41,2.41,0,0,1,2-.8h8.12a2.52,2.52,0,0,1,.92.19,3.16,3.16,0,0,1,.92.56,3.69,3.69,0,0,1,.72.85,2.12,2.12,0,0,1,.31,1.12v38.89a2.56,2.56,0,0,1-.75,2,3,3,0,0,1-2.12.68h-8.12c-1.75,0-2.62-.89-2.62-2.68Z"/><path class="e6d3de3d-edec-4038-bcab-c263a5e65b00" d="M175.67,106.34a2.27,2.27,0,0,1,1-.49,4.77,4.77,0,0,1,1-.1H183a2.48,2.48,0,0,1,1.1.23,2.23,2.23,0,0,1,.78.61,3,3,0,0,1,.51.86c.13.33.26.67.37,1l.75,3a8.29,8.29,0,0,1,1.72-2.22,13,13,0,0,1,2.94-2.09,19.2,19.2,0,0,1,4.06-1.55,20.37,20.37,0,0,1,5.14-.6,16.28,16.28,0,0,1,7.21,1.53,16,16,0,0,1,5.38,4.17,18.3,18.3,0,0,1,3.37,6.18,24.1,24.1,0,0,1,1.15,7.54v22.85a3,3,0,0,1-.58,2A2.3,2.3,0,0,1,215,150h-8.19a3.21,3.21,0,0,1-2.09-.5,2.6,2.6,0,0,1-.57-2V124.83a6.11,6.11,0,0,0-.69-2.84,8.25,8.25,0,0,0-1.82-2.37,8.6,8.6,0,0,0-2.57-1.62,7.53,7.53,0,0,0-2.93-.6,6.7,6.7,0,0,0-2.6.56,8.63,8.63,0,0,0-2.44,1.55,8.92,8.92,0,0,0-1.88,2.34,6.75,6.75,0,0,0-.87,2.91v22.67a3.35,3.35,0,0,1-.23,1.19,2,2,0,0,1-.69.91,3.54,3.54,0,0,1-.87.38,3.82,3.82,0,0,1-.94.1h-8a2.86,2.86,0,0,1-2.2-.73,2.77,2.77,0,0,1-.67-1.95v-39a2.51,2.51,0,0,1,.3-1.22,2.2,2.2,0,0,1,.84-.87Z"/><path class="e6d3de3d-edec-4038-bcab-c263a5e65b00" d="M258.56,148.48a6.48,6.48,0,0,0,.32-1.53c.05-.56.07-1.14.07-1.75v-.47a1.84,1.84,0,0,0,0-.26,1.84,1.84,0,0,1,0-.26v-.47c-.68.72-1.38,1.43-2.09,2.13a14.36,14.36,0,0,1-2.35,1.86,12.28,12.28,0,0,1-2.93,1.33,13,13,0,0,1-3.79.5,24,24,0,0,1-8.86-1.6,21.23,21.23,0,0,1-7-4.48,20.23,20.23,0,0,1-4.64-6.89,22.84,22.84,0,0,1-1.67-8.83,23.94,23.94,0,0,1,1.67-9,22.18,22.18,0,0,1,4.64-7.25,21.54,21.54,0,0,1,7-4.85,22.17,22.17,0,0,1,8.86-1.76,15.25,15.25,0,0,1,4,.49,14.34,14.34,0,0,1,3.31,1.34,14.82,14.82,0,0,1,2.75,2,26.46,26.46,0,0,1,2.3,2.44l1-3.11.39-1.08a2.7,2.7,0,0,1,.46-.82,1.73,1.73,0,0,1,.73-.5,3.08,3.08,0,0,1,1.15-.18h5.28a2.88,2.88,0,0,1,1,.18,3.21,3.21,0,0,1,.91.49,2.23,2.23,0,0,1,.65.8,2.39,2.39,0,0,1,.25,1.11v35.51a24.53,24.53,0,0,1-1.81,9.7,20.68,20.68,0,0,1-4.94,7.18,21.21,21.21,0,0,1-7.43,4.47,27.18,27.18,0,0,1-9.21,1.53,27.77,27.77,0,0,1-4.11-.33,31.36,31.36,0,0,1-4.38-1,25.93,25.93,0,0,1-4.21-1.7,17.3,17.3,0,0,1-3.6-2.38,3.43,3.43,0,0,1-.9-1,2.31,2.31,0,0,1-.38-1.28,3.28,3.28,0,0,1,.68-1.84l3.36-4.57a5.06,5.06,0,0,1,.92-.79,1.79,1.79,0,0,1,.93-.26,3.64,3.64,0,0,1,1.95.84,7,7,0,0,0,2,1.34,14.17,14.17,0,0,0,2.38.8,14.74,14.74,0,0,0,2.41.39c.79.05,1.5.08,2.14.08a14.71,14.71,0,0,0,3.33-.41,13.85,13.85,0,0,0,3.24-1.24,11.08,11.08,0,0,0,2.66-2A6.22,6.22,0,0,0,258.56,148.48Zm-20.27-20.72a12.47,12.47,0,0,0,.73,4.34,10.13,10.13,0,0,0,2.07,3.48,9.8,9.8,0,0,0,3.24,2.3,10.46,10.46,0,0,0,4.2.83,11.65,11.65,0,0,0,4.27-.78,10.74,10.74,0,0,0,5.88-5.46,10.31,10.31,0,0,0,1-4.08v-1.15a10.37,10.37,0,0,0-1-4,11.57,11.57,0,0,0-2.39-3.35,11.45,11.45,0,0,0-3.49-2.3,10.74,10.74,0,0,0-4.27-.85,9.84,9.84,0,0,0-4.2.88,10.19,10.19,0,0,0-3.24,2.39,10.45,10.45,0,0,0-2.07,3.53A12.29,12.29,0,0,0,238.29,127.76Z"/><path class="e6d3de3d-edec-4038-bcab-c263a5e65b00" d="M326.74,147.43a3.12,3.12,0,0,1-.21,1.14,1.73,1.73,0,0,1-.71.85,1.76,1.76,0,0,1-.92.49,4.75,4.75,0,0,1-.92.1h-7a3.16,3.16,0,0,1-1.21-.19,1.85,1.85,0,0,1-.74-.54,3,3,0,0,1-.48-.85c-.13-.34-.27-.71-.41-1.1l-.46-1.57a20.69,20.69,0,0,1-2.18,1.85,17.28,17.28,0,0,1-2.69,1.62,16.59,16.59,0,0,1-3.15,1.15,14,14,0,0,1-3.5.44A23.27,23.27,0,0,1,296,150a22.81,22.81,0,0,1-16.11-15.95,23.18,23.18,0,0,1-.81-6.16,22.44,22.44,0,0,1,1.8-9A23,23,0,0,1,302.18,105a16.23,16.23,0,0,1,4.1.49,15.91,15.91,0,0,1,3.47,1.32,13.79,13.79,0,0,1,2.85,2,15.68,15.68,0,0,1,2.24,2.53l1-3.17c.24-.59.43-1.06.59-1.42a2.51,2.51,0,0,1,.49-.8,1.41,1.41,0,0,1,.66-.35,5.13,5.13,0,0,1,1.1-.09H324a4.85,4.85,0,0,1,.92.11,1.76,1.76,0,0,1,.92.49,2.16,2.16,0,0,1,.71.87,2.82,2.82,0,0,1,.21,1.11ZM291.83,127.9a12.66,12.66,0,0,0,.73,4.31,10.26,10.26,0,0,0,2.08,3.47,9.65,9.65,0,0,0,3.24,2.32,10.07,10.07,0,0,0,4.2.85,11.29,11.29,0,0,0,4.41-.85,11.15,11.15,0,0,0,3.54-2.32,10.47,10.47,0,0,0,2.36-3.47,10.87,10.87,0,0,0,.85-4.31,10.75,10.75,0,0,0-.85-4.25,11.23,11.23,0,0,0-5.9-6,11,11,0,0,0-4.41-.88,9.62,9.62,0,0,0-7.44,3.31,11,11,0,0,0-2.08,3.56A12.53,12.53,0,0,0,291.83,127.9Z"/><path class="e6d3de3d-edec-4038-bcab-c263a5e65b00" d="M336.17,106.14a2.12,2.12,0,0,1,.95-.49,4.64,4.64,0,0,1,1-.11h5.35a2.63,2.63,0,0,1,1.12.21,2,2,0,0,1,.72.58,3.41,3.41,0,0,1,.48.84c.13.31.25.65.37,1l1.49,4.22,2-2.57a13.09,13.09,0,0,1,2.39-2.37,12.09,12.09,0,0,1,3.29-1.76A13.65,13.65,0,0,1,360,105a22.47,22.47,0,0,1,8.95,1.76,21.33,21.33,0,0,1,7.05,4.85,22.59,22.59,0,0,1,4.63,7.26,25.25,25.25,0,0,1,0,18,22.42,22.42,0,0,1-4.63,7.27,21.53,21.53,0,0,1-7.05,4.87,22.31,22.31,0,0,1-8.95,1.78,12.92,12.92,0,0,1-4-.54,11.77,11.77,0,0,1-3-1.42,14.41,14.41,0,0,1-2.29-1.91c-.66-.7-1.3-1.4-1.94-2.1v16.26a2.62,2.62,0,0,1-.64,1.77,2.51,2.51,0,0,1-2,.74h-8.11a2.72,2.72,0,0,1-.92-.18,3.23,3.23,0,0,1-.92-.48,2.69,2.69,0,0,1-.71-.79,2,2,0,0,1-.29-1.06v-53a2.25,2.25,0,0,1,.27-1.15A4,4,0,0,1,336.17,106.14Zm33.1,21.76a12,12,0,0,0-.75-4.24,10.72,10.72,0,0,0-2.09-3.5,9.87,9.87,0,0,0-3.22-2.37,9.65,9.65,0,0,0-4.15-.87,11.3,11.3,0,0,0-10.19,6.38,10.27,10.27,0,0,0-1.05,4.08v.52a10.69,10.69,0,0,0,.89,4.33,11,11,0,0,0,2.41,3.5,11.56,11.56,0,0,0,3.58,2.36,11.06,11.06,0,0,0,4.36.87,9.79,9.79,0,0,0,4.15-.87,10,10,0,0,0,3.22-2.36,10.52,10.52,0,0,0,2.09-3.5A12.35,12.35,0,0,0,369.27,127.9Z"/><path class="e6d3de3d-edec-4038-bcab-c263a5e65b00" d="M388,127.9a22.93,22.93,0,0,1,3.18-11.67,23.18,23.18,0,0,1,3.61-4.6,22.63,22.63,0,0,1,4.7-3.54,23.67,23.67,0,0,1,5.58-2.27,24.22,24.22,0,0,1,6.25-.8,23.44,23.44,0,0,1,9.06,1.76,22.76,22.76,0,0,1,12.33,12.11,22.13,22.13,0,0,1,1.83,9,22.4,22.4,0,0,1-.84,6.16,22.71,22.71,0,0,1-2.34,5.49,22.47,22.47,0,0,1-3.61,4.62,22.73,22.73,0,0,1-4.7,3.56,23.08,23.08,0,0,1-5.54,2.28,23.4,23.4,0,0,1-6.19.81A23.8,23.8,0,0,1,405,150a23,23,0,0,1-10.28-5.84,22.47,22.47,0,0,1-3.61-4.62,22.71,22.71,0,0,1-2.34-5.49A22.4,22.4,0,0,1,388,127.9Zm12.94,0a12.42,12.42,0,0,0,.73,4.31,10.36,10.36,0,0,0,2.05,3.47,9.61,9.61,0,0,0,3.23,2.32,10.24,10.24,0,0,0,4.27.85,9.85,9.85,0,0,0,4.16-.85,9.43,9.43,0,0,0,3.16-2.32,10.21,10.21,0,0,0,2-3.47,13.16,13.16,0,0,0,.69-4.31,13,13,0,0,0-.69-4.25,10.94,10.94,0,0,0-2-3.56,9.29,9.29,0,0,0-7.32-3.31,9.94,9.94,0,0,0-4.27.88,9.76,9.76,0,0,0-3.23,2.43,11.09,11.09,0,0,0-2.05,3.56A12.29,12.29,0,0,0,400.91,127.9Z"/><path class="e6d3de3d-edec-4038-bcab-c263a5e65b00" d="M441.56,108.3a2.44,2.44,0,0,1,.25-1.15,2.26,2.26,0,0,1,.65-.81,2.94,2.94,0,0,1,.92-.46,3.32,3.32,0,0,1,1-.16h5.35a1.93,1.93,0,0,1,1.42.52,4.57,4.57,0,0,1,.9,1.33,12.26,12.26,0,0,1,.66,1.78,16.07,16.07,0,0,0,.67,1.88L455.5,109a16.19,16.19,0,0,1,2.25-2,11.53,11.53,0,0,1,2.64-1.41,9.28,9.28,0,0,1,3.28-.54,18.47,18.47,0,0,1,3.42.28,14.65,14.65,0,0,1,2.85.82,16.63,16.63,0,0,1,2.68,1.38c.88.56,1.85,1.21,2.89,2a2.47,2.47,0,0,1,1.52,2.06,3.64,3.64,0,0,1-.6,1.78l-3.23,5.4a2.82,2.82,0,0,1-2.37,1.36,4.06,4.06,0,0,1-1.6-.38,11,11,0,0,0-3.1-2.18,8.55,8.55,0,0,0-3.59-.71,6.93,6.93,0,0,0-2.43.38,6.5,6.5,0,0,0-1.9,1.08,10.16,10.16,0,0,0-1.59,1.67c-.5.66-1,1.38-1.49,2.17v25.25a2.76,2.76,0,0,1-.66,2,2.89,2.89,0,0,1-2.18.68h-8c-1.84,0-2.76-.89-2.76-2.68Z"/><path class="e6d3de3d-edec-4038-bcab-c263a5e65b00" d="M519,144.71a23.6,23.6,0,0,1-7,4.42,21.84,21.84,0,0,1-8.26,1.58,24.41,24.41,0,0,1-9.18-1.74,24,24,0,0,1-7.58-4.83,23.2,23.2,0,0,1-5.17-7.28,21.55,21.55,0,0,1-1.92-9.1,23.06,23.06,0,0,1,.77-6,22.6,22.6,0,0,1,2.16-5.38,22.9,22.9,0,0,1,3.4-4.63,21.27,21.27,0,0,1,4.48-3.6,22.44,22.44,0,0,1,5.39-2.34,22,22,0,0,1,6.13-.84,21.37,21.37,0,0,1,5.71.77,22.25,22.25,0,0,1,9.63,5.51,22.75,22.75,0,0,1,3.48,4.27,20.48,20.48,0,0,1,2.25,5,18.73,18.73,0,0,1,.79,5.43c0,1.21,0,2.19,0,3a3.26,3.26,0,0,1-.55,1.83,2.68,2.68,0,0,1-1.65.95,16.61,16.61,0,0,1-3.38.26H492.9a8.63,8.63,0,0,0,1.44,3.73,9,9,0,0,0,2.5,2.39,10,10,0,0,0,3,1.27,12.76,12.76,0,0,0,3,.39,13.42,13.42,0,0,0,2.63-.27,18.75,18.75,0,0,0,2.6-.69,14.75,14.75,0,0,0,2.3-1,7.92,7.92,0,0,0,1.69-1.21,7.08,7.08,0,0,1,1-.68,1.77,1.77,0,0,1,.87-.23,1.71,1.71,0,0,1,.94.32,7.52,7.52,0,0,1,1.08.9l3.76,4.19a2.29,2.29,0,0,1,.49.82,2.78,2.78,0,0,1,.11.75,1.88,1.88,0,0,1-.39,1.2A4.32,4.32,0,0,1,519,144.71Zm-17.05-29.05a6.85,6.85,0,0,0-2.67.54,9.72,9.72,0,0,0-2.43,1.45,12.05,12.05,0,0,0-2,2.06,12.55,12.55,0,0,0-1.47,2.33h18.11a23,23,0,0,0-1.61-2.51,10.58,10.58,0,0,0-2-2,8.42,8.42,0,0,0-2.55-1.36A10.28,10.28,0,0,0,501.94,115.66Z"/><path class="e6d3de3d-edec-4038-bcab-c263a5e65b00" d="M111.85,166.82a2.86,2.86,0,0,1,.71-2,2.63,2.63,0,0,1,2-.76h41.17a26.05,26.05,0,0,1,10.3,2.05,26.61,26.61,0,0,1,14.2,14,25.23,25.23,0,0,1,2.11,10.29,24.34,24.34,0,0,1-1.46,8.51,22.82,22.82,0,0,1-4.12,7,29.88,29.88,0,0,1,7.07,9.58,27.53,27.53,0,0,1,2.6,11.79,26,26,0,0,1-2.17,10.53,28.64,28.64,0,0,1-5.86,8.72,27.83,27.83,0,0,1-8.62,6,25.3,25.3,0,0,1-10.39,2.2H114.58a2.94,2.94,0,0,1-2-.65,2.49,2.49,0,0,1-.74-2Zm46.69,24.05a8.49,8.49,0,0,0-.68-3.42,8.71,8.71,0,0,0-1.93-2.81,9.1,9.1,0,0,0-3-1.92,10,10,0,0,0-3.79-.7H135.85v17.7H149a11.58,11.58,0,0,0,3.89-.64,8.42,8.42,0,0,0,3-1.84,8.53,8.53,0,0,0,2-2.8A8.69,8.69,0,0,0,158.54,190.87Zm3.29,35.46a10.13,10.13,0,0,0-.71-3.66,10.91,10.91,0,0,0-2-3.27,10.58,10.58,0,0,0-3-2.35,8.18,8.18,0,0,0-3.82-.91H135.85v20.38h16.41a8.46,8.46,0,0,0,3.79-.85,10.07,10.07,0,0,0,3-2.29,10.6,10.6,0,0,0,2-3.27A10.43,10.43,0,0,0,161.83,226.33Z"/><path class="e6d3de3d-edec-4038-bcab-c263a5e65b00" d="M196.81,158.76a5.43,5.43,0,0,1,1-3.3,4,4,0,0,1,3.41-1.34H216.4a3,3,0,0,1,1.31.34,4.8,4.8,0,0,1,1.27.94,5.57,5.57,0,0,1,1,1.47,4.36,4.36,0,0,1,.4,1.89V250a4.44,4.44,0,0,1-1.33,3.5,5,5,0,0,1-3.44,1.2H201.21a4.21,4.21,0,0,1-3.41-1.2,5.35,5.35,0,0,1-1-3.5Z"/><path class="e6d3de3d-edec-4038-bcab-c263a5e65b00" d="M232.84,216a39.59,39.59,0,0,1,11.88-28.47,38.94,38.94,0,0,1,8.21-6.2,41.35,41.35,0,0,1,9.77-4,41.93,41.93,0,0,1,10.95-1.41A40.74,40.74,0,0,1,289.49,179a39.79,39.79,0,0,1,21.58,21.18,38.86,38.86,0,0,1,3.2,15.77,39.52,39.52,0,0,1-1.46,10.78,40.49,40.49,0,0,1-4.09,9.61,39.83,39.83,0,0,1-14.55,14.31,40.81,40.81,0,0,1-9.7,4,41.47,41.47,0,0,1-10.82,1.4,42.35,42.35,0,0,1-10.95-1.4,40.64,40.64,0,0,1-9.77-4,39.9,39.9,0,0,1-14.54-14.31,40.08,40.08,0,0,1-4.09-9.61A39.13,39.13,0,0,1,232.84,216Zm22.63,0a21.91,21.91,0,0,0,1.28,7.54,18,18,0,0,0,3.59,6.08,16.85,16.85,0,0,0,5.65,4.06,18.08,18.08,0,0,0,7.47,1.49,17.37,17.37,0,0,0,7.29-1.49,16.43,16.43,0,0,0,5.52-4.06,17.92,17.92,0,0,0,3.47-6.08,23.79,23.79,0,0,0,0-15,19.23,19.23,0,0,0-3.47-6.23,16.39,16.39,0,0,0-5.52-4.24,16.65,16.65,0,0,0-7.29-1.56A17.33,17.33,0,0,0,266,198a16.79,16.79,0,0,0-5.65,4.24,19.32,19.32,0,0,0-3.59,6.23A21.79,21.79,0,0,0,255.47,216Z"/><path class="e6d3de3d-edec-4038-bcab-c263a5e65b00" d="M377,230.79a4.47,4.47,0,0,1,1.64-.77,6.85,6.85,0,0,1,1.21-.15,4.23,4.23,0,0,1,1.92.43,5,5,0,0,1,1.8,1.83l6.95,10.31a11.35,11.35,0,0,1,.59,1.11,2.56,2.56,0,0,1,.27,1,3.07,3.07,0,0,1-.9,2.29,11.31,11.31,0,0,1-1.95,1.56A46.79,46.79,0,0,1,377.43,254a38.75,38.75,0,0,1-12.8,2.11,41.26,41.26,0,0,1-10.77-1.4,39.7,39.7,0,0,1-9.64-4,41.1,41.1,0,0,1-8.18-6.22,38,38,0,0,1-6.33-8.09,40.83,40.83,0,0,1-4.06-9.61,40.6,40.6,0,0,1,0-21.58,40.13,40.13,0,0,1,4.06-9.61,38.34,38.34,0,0,1,6.33-8.06,40.76,40.76,0,0,1,28.59-11.57,42.17,42.17,0,0,1,12.49,1.77,39.05,39.05,0,0,1,10.76,5.25l-.19-.18a7.15,7.15,0,0,1,2.17,1.86,4.27,4.27,0,0,1,.81,2.66,4.2,4.2,0,0,1-.74,2.25l-5.52,9.22c-1.16,2-2.57,3-4.22,3a4.39,4.39,0,0,1-1.36-.27,7.53,7.53,0,0,1-1.8-1,29.07,29.07,0,0,0-5.86-2.9,19.59,19.59,0,0,0-6.67-1.13,16.52,16.52,0,0,0-7.19,1.56,17,17,0,0,0-5.62,4.24,19.76,19.76,0,0,0-3.62,6.23,22.07,22.07,0,0,0,0,15,18.4,18.4,0,0,0,3.62,6.08,17,17,0,0,0,5.62,4.06,17.23,17.23,0,0,0,7.19,1.49,17.85,17.85,0,0,0,6.64-1.22A30.19,30.19,0,0,0,377,230.79Z"/><path class="e6d3de3d-edec-4038-bcab-c263a5e65b00" d="M403.2,158.76q0-1,.06-1.89a2.77,2.77,0,0,1,.52-1.47,3,3,0,0,1,1.46-.94,9.21,9.21,0,0,1,2.79-.34h14.83a4.34,4.34,0,0,1,1.95.4,3.47,3.47,0,0,1,1.24,1,3.23,3.23,0,0,1,.62,1.31,6.27,6.27,0,0,1,.15,1.31v45.17l22.33-24.41a5,5,0,0,1,3.85-1.78h19q3.42,0,3.42,2.63a2.5,2.5,0,0,1-.22,1.1,8,8,0,0,1-.9,1.22l-25.49,26.49L480.9,249.1h-.12a5,5,0,0,1,1.15,1.62,4.11,4.11,0,0,1,.34,1.49,2.13,2.13,0,0,1-.78,1.92,4.17,4.17,0,0,1-2.32.53h-21a3,3,0,0,1-2-.8,13.16,13.16,0,0,1-2.05-2.38L433.9,223.22l-6.89,7V250a7.29,7.29,0,0,1-.15,1.28,4.65,4.65,0,0,1-.63,1.55,4.27,4.27,0,0,1-1.26,1.32,3.73,3.73,0,0,1-2.11.55H407.29a3.26,3.26,0,0,1-1.92-.58,4.8,4.8,0,0,1-1.27-1.32,6.28,6.28,0,0,1-.69-1.37,4.35,4.35,0,0,1-.21-.76Z"/><path class="e6d3de3d-edec-4038-bcab-c263a5e65b00" d="M541.24,230.79a4.54,4.54,0,0,1,1.64-.77,6.85,6.85,0,0,1,1.21-.15,4.24,4.24,0,0,1,1.93.43,5,5,0,0,1,1.8,1.83l6.94,10.31a9.54,9.54,0,0,1,.59,1.11,2.43,2.43,0,0,1,.28,1,3.07,3.07,0,0,1-.9,2.29,12.13,12.13,0,0,1-2,1.56A46.67,46.67,0,0,1,541.64,254a38.75,38.75,0,0,1-12.8,2.11,41.18,41.18,0,0,1-10.76-1.4,39.54,39.54,0,0,1-9.64-4,41.16,41.16,0,0,1-8.19-6.22,38.33,38.33,0,0,1-6.33-8.09,41.25,41.25,0,0,1-4.06-9.61,40.87,40.87,0,0,1,0-21.58,40.54,40.54,0,0,1,4.06-9.61,38.67,38.67,0,0,1,6.33-8.06,40.69,40.69,0,0,1,8.19-6.2,40.22,40.22,0,0,1,9.64-4,40.77,40.77,0,0,1,10.76-1.41,42.17,42.17,0,0,1,12.49,1.77,39,39,0,0,1,10.77,5.25l-.19-.18a7.27,7.27,0,0,1,2.17,1.86,4.27,4.27,0,0,1,.8,2.66,4.12,4.12,0,0,1-.74,2.25l-5.52,9.22c-1.16,2-2.56,3-4.22,3a4.39,4.39,0,0,1-1.36-.27,7.53,7.53,0,0,1-1.8-1,28.81,28.81,0,0,0-5.86-2.9,19.59,19.59,0,0,0-6.67-1.13,16.56,16.56,0,0,0-7.19,1.56,16.93,16.93,0,0,0-5.61,4.24,20,20,0,0,0-3.63,6.23,22.23,22.23,0,0,0,0,15,18.59,18.59,0,0,0,3.63,6.08,17,17,0,0,0,5.61,4.06,17.26,17.26,0,0,0,7.19,1.49,17.85,17.85,0,0,0,6.64-1.22A29.91,29.91,0,0,0,541.24,230.79Z"/><path class="e6d3de3d-edec-4038-bcab-c263a5e65b00" d="M591.23,185.29a16,16,0,0,1,3.26-3.38,24.83,24.83,0,0,1,4.77-3,30.23,30.23,0,0,1,6-2.12,28.52,28.52,0,0,1,7-.83,26.41,26.41,0,0,1,12.25,2.68A24.19,24.19,0,0,1,633,186a32,32,0,0,1,5,10.81,51.44,51.44,0,0,1,1.64,13.2v40a5.24,5.24,0,0,1-1,3.5,4.07,4.07,0,0,1-3.26,1.2H621.06c-1.78,0-3-.3-3.66-.89s-1-1.74-1-3.45V210a11.69,11.69,0,0,0-1-4.88,12.74,12.74,0,0,0-2.76-3.94,12.5,12.5,0,0,0-4.06-2.62,13,13,0,0,0-4.93-.95,11.34,11.34,0,0,0-4.37.89,12.45,12.45,0,0,0-3.85,2.5,14.28,14.28,0,0,0-2.85,3.88,12.81,12.81,0,0,0-1.33,5v40.29a5.65,5.65,0,0,1-.41,2.07,3.22,3.22,0,0,1-1.2,1.59,5.54,5.54,0,0,1-1.53.67,6.66,6.66,0,0,1-1.64.19h-14a5,5,0,0,1-3.85-1.29,4.81,4.81,0,0,1-1.18-3.41V158.73a4.73,4.73,0,0,1,1.18-3.35,5,5,0,0,1,3.85-1.28h14a6.6,6.6,0,0,1,3.17,1,3.31,3.31,0,0,1,1.2,1.59,5.38,5.38,0,0,1,.41,2Z"/><path class="e6d3de3d-edec-4038-bcab-c263a5e65b00" d="M735.6,250.14a5.32,5.32,0,0,1-.38,2,3,3,0,0,1-1.23,1.5,3.11,3.11,0,0,1-1.62.85,8.59,8.59,0,0,1-1.61.19H718.55a5.69,5.69,0,0,1-2.12-.34,3.33,3.33,0,0,1-1.3-.95,5.3,5.3,0,0,1-.83-1.49q-.34-.88-.72-1.92l-.8-2.75a35,35,0,0,1-3.82,3.23,28.71,28.71,0,0,1-4.71,2.84,29.16,29.16,0,0,1-5.52,2,24.65,24.65,0,0,1-6.11.76,41.41,41.41,0,0,1-10.82-1.4,40.32,40.32,0,0,1-9.68-4,39.84,39.84,0,0,1-18.51-23.92A40.29,40.29,0,0,1,652.19,216a39.18,39.18,0,0,1,3.16-15.77A39.58,39.58,0,0,1,676.81,179a40.52,40.52,0,0,1,15.81-3.09,28.62,28.62,0,0,1,7.16.86,27.31,27.31,0,0,1,6.08,2.32,23.32,23.32,0,0,1,5,3.51,26.64,26.64,0,0,1,3.91,4.42l1.8-5.55c.41-1,.75-1.84,1-2.47a4.33,4.33,0,0,1,.86-1.41,2.33,2.33,0,0,1,1.15-.61,9.45,9.45,0,0,1,1.92-.15h9.24a8.5,8.5,0,0,1,1.61.18,3.13,3.13,0,0,1,1.62.86,3.74,3.74,0,0,1,1.23,1.52,4.83,4.83,0,0,1,.38,2ZM674.51,216a21.67,21.67,0,0,0,1.28,7.54,17.75,17.75,0,0,0,3.62,6.08,17.28,17.28,0,0,0,5.68,4.06,17.78,17.78,0,0,0,7.35,1.49,19.75,19.75,0,0,0,13.92-5.55,18.33,18.33,0,0,0,4.12-6.08,19.57,19.57,0,0,0,0-15A19.49,19.49,0,0,0,700.16,198a19.06,19.06,0,0,0-7.72-1.56,17,17,0,0,0-13,5.8,19,19,0,0,0-3.62,6.23A21.55,21.55,0,0,0,674.51,216Z"/><path class="e6d3de3d-edec-4038-bcab-c263a5e65b00" d="M750.42,151a4,4,0,0,1,4.59-4.7H769.4a5.41,5.41,0,0,1,3.5,1.07,4.39,4.39,0,0,1,1.34,3.63v11.9a4.46,4.46,0,0,1-.34,1.59,6.94,6.94,0,0,1-1,1.65,5.24,5.24,0,0,1-1.53,1.31,3.91,3.91,0,0,1-2,.52H755q-4.59,0-4.59-5.07Zm0,30.88a5.23,5.23,0,0,1,1.12-3.35,4.15,4.15,0,0,1,3.47-1.41h14.2a4.52,4.52,0,0,1,1.61.34,5.44,5.44,0,0,1,1.62,1,6.08,6.08,0,0,1,1.27,1.49,3.65,3.65,0,0,1,.53,1.95V250a4.53,4.53,0,0,1-1.3,3.5,5.33,5.33,0,0,1-3.73,1.2H755q-4.59,0-4.59-4.7Z"/><path class="e6d3de3d-edec-4038-bcab-c263a5e65b00" d="M790.73,178.23a3.85,3.85,0,0,1,1.71-.86,8.73,8.73,0,0,1,1.71-.18h9.36a4.25,4.25,0,0,1,1.92.4,4.07,4.07,0,0,1,1.36,1.06,5.65,5.65,0,0,1,.9,1.52c.23.57.45,1.16.65,1.77l1.31,5.36a14.59,14.59,0,0,1,3-3.9,23,23,0,0,1,5.15-3.65,32.53,32.53,0,0,1,7.1-2.71,35.26,35.26,0,0,1,9-1.07,28.8,28.8,0,0,1,12.62,2.68,28,28,0,0,1,9.42,7.31,32,32,0,0,1,5.89,10.81,42.13,42.13,0,0,1,2,13.2v40a5.24,5.24,0,0,1-1,3.5,4.07,4.07,0,0,1-3.26,1.2H845.24a5.65,5.65,0,0,1-3.66-.89q-1-.89-1-3.45V210.58a10.78,10.78,0,0,0-1.2-5,14.65,14.65,0,0,0-3.2-4.15,15.26,15.26,0,0,0-4.5-2.84,13.26,13.26,0,0,0-5.11-1,11.75,11.75,0,0,0-4.56,1,15.07,15.07,0,0,0-4.28,2.72,15.87,15.87,0,0,0-3.29,4.09,11.68,11.68,0,0,0-1.51,5.09v39.68a5.65,5.65,0,0,1-.41,2.07,3.24,3.24,0,0,1-1.21,1.59,5.62,5.62,0,0,1-1.52.67,6.66,6.66,0,0,1-1.64.19h-14a5,5,0,0,1-3.85-1.29,4.81,4.81,0,0,1-1.18-3.41V181.7a4.43,4.43,0,0,1,.53-2.13A3.88,3.88,0,0,1,791.1,178Z"/><path class="e6d3de3d-edec-4038-bcab-c263a5e65b00" d="M146,267.15a2.94,2.94,0,0,1,.71-2,2.68,2.68,0,0,1,2.14-.82h19.1a3.68,3.68,0,0,1,2.08.76,2.37,2.37,0,0,1,1.11,2v89.33c0,1.88-1.07,2.81-3.19,2.81h-19.1c-1.9,0-2.85-.93-2.85-2.81Z"/><path class="e6d3de3d-edec-4038-bcab-c263a5e65b00" d="M191.06,279.23a4,4,0,0,1,1.79-.9,8.8,8.8,0,0,1,1.79-.19h9.81a4.48,4.48,0,0,1,2,.42,4.21,4.21,0,0,1,1.43,1.11,5.92,5.92,0,0,1,.94,1.6c.24.59.47,1.21.68,1.84l1.37,5.62a15.17,15.17,0,0,1,3.15-4.08,24.21,24.21,0,0,1,5.39-3.83,34.55,34.55,0,0,1,7.44-2.84,37,37,0,0,1,9.42-1.12,30.06,30.06,0,0,1,13.22,2.81,29.29,29.29,0,0,1,9.88,7.66,33.79,33.79,0,0,1,6.17,11.32,44.32,44.32,0,0,1,2.11,13.84v41.88a5.53,5.53,0,0,1-1.07,3.68,4.27,4.27,0,0,1-3.41,1.24h-15c-1.86,0-3.14-.31-3.83-.93s-1-1.82-1-3.61V313.12a11.29,11.29,0,0,0-1.27-5.21,15.36,15.36,0,0,0-3.35-4.35,16.2,16.2,0,0,0-4.71-3,14,14,0,0,0-5.36-1.09,12.11,12.11,0,0,0-4.77,1,16.09,16.09,0,0,0-4.48,2.84,16.61,16.61,0,0,0-3.45,4.29,12.38,12.38,0,0,0-1.59,5.34v41.56a5.93,5.93,0,0,1-.42,2.17,3.5,3.5,0,0,1-1.27,1.67,6,6,0,0,1-1.59.7,6.86,6.86,0,0,1-1.72.19H194.64a5.22,5.22,0,0,1-4-1.34,5,5,0,0,1-1.24-3.58V282.86a4.69,4.69,0,0,1,.55-2.23,4.13,4.13,0,0,1,1.53-1.6Z"/><path class="e6d3de3d-edec-4038-bcab-c263a5e65b00" d="M284.94,279.23a4,4,0,0,1,1.79-.9,8.71,8.71,0,0,1,1.78-.19h9.81a4.52,4.52,0,0,1,2,.42,4.21,4.21,0,0,1,1.43,1.11,5.92,5.92,0,0,1,.94,1.6c.23.59.46,1.21.68,1.84l1.37,5.62a15,15,0,0,1,3.15-4.08,24,24,0,0,1,5.39-3.83,34.35,34.35,0,0,1,7.44-2.84,37,37,0,0,1,9.42-1.12,30.06,30.06,0,0,1,13.22,2.81,29.15,29.15,0,0,1,9.87,7.66,33.63,33.63,0,0,1,6.18,11.32,44.61,44.61,0,0,1,2.11,13.84v41.88a5.53,5.53,0,0,1-1.07,3.68,4.28,4.28,0,0,1-3.42,1.24h-15q-2.79,0-3.84-.93c-.69-.61-1-1.82-1-3.61V313.12a11.28,11.28,0,0,0-1.26-5.21,15.36,15.36,0,0,0-3.35-4.35,16.2,16.2,0,0,0-4.71-3,14,14,0,0,0-5.36-1.09,12.11,12.11,0,0,0-4.77,1,16.14,16.14,0,0,0-4.49,2.84,16.79,16.79,0,0,0-3.44,4.29A12.38,12.38,0,0,0,308.2,313v41.56a5.93,5.93,0,0,1-.42,2.17,3.56,3.56,0,0,1-1.27,1.67,6.29,6.29,0,0,1-1.59.7,6.94,6.94,0,0,1-1.73.19H288.51a5.21,5.21,0,0,1-4-1.34,5,5,0,0,1-1.24-3.58V282.86a4.58,4.58,0,0,1,.55-2.23,4.13,4.13,0,0,1,1.53-1.6Z"/><path class="e6d3de3d-edec-4038-bcab-c263a5e65b00" d="M374.6,318.75A41.43,41.43,0,0,1,387,288.92a40.8,40.8,0,0,1,8.61-6.49,43.48,43.48,0,0,1,10.23-4.16,44.57,44.57,0,0,1,11.47-1.47A42.86,42.86,0,0,1,434,280a41.79,41.79,0,0,1,22.61,22.19A42.48,42.48,0,0,1,458.37,330a42,42,0,0,1-4.28,10.08,41.46,41.46,0,0,1-6.63,8.47,41.89,41.89,0,0,1-8.61,6.52,42.54,42.54,0,0,1-10.17,4.19,43.08,43.08,0,0,1-11.33,1.47,44.14,44.14,0,0,1-11.47-1.47,42.31,42.31,0,0,1-10.23-4.19,41.81,41.81,0,0,1-15.24-15A42.44,42.44,0,0,1,376.12,330,41.13,41.13,0,0,1,374.6,318.75Zm23.71,0a23.23,23.23,0,0,0,1.33,7.9,19.06,19.06,0,0,0,3.77,6.36,17.55,17.55,0,0,0,5.91,4.25,18.78,18.78,0,0,0,7.83,1.57,18,18,0,0,0,7.63-1.57,17.16,17.16,0,0,0,5.79-4.25,18.61,18.61,0,0,0,3.63-6.36,24.89,24.89,0,0,0,0-15.7,20.05,20.05,0,0,0-3.63-6.52,17.18,17.18,0,0,0-5.79-4.45,17.53,17.53,0,0,0-7.63-1.63,18.34,18.34,0,0,0-7.83,1.63,17.54,17.54,0,0,0-5.91,4.45,20.56,20.56,0,0,0-3.77,6.52A23.07,23.07,0,0,0,398.31,318.75Z"/><path class="e6d3de3d-edec-4038-bcab-c263a5e65b00" d="M463.41,284.41a5.21,5.21,0,0,1-.49-4.47q.81-1.86,3.87-1.86h16.63a5,5,0,0,1,3,.9,4.71,4.71,0,0,1,1.78,2.56q1.11,3.39,2.44,7.6t2.79,8.67c1,3,1.94,5.91,2.9,8.82s1.82,5.61,2.63,8.06,1.51,4.58,2.14,6.4,1.09,3.1,1.4,3.86l13.77-43.41a5.84,5.84,0,0,1,1.92-2.76,5.55,5.55,0,0,1,3-.7h17.09a7,7,0,0,1,2.85.45,2.39,2.39,0,0,1,1.3,1.21,2.94,2.94,0,0,1,.13,1.76,10.11,10.11,0,0,1-.65,2.08l-30.92,73a7.82,7.82,0,0,1-1.69,1.95,4.5,4.5,0,0,1-2.92.8h-7.74a6.8,6.8,0,0,1-3.67-.73,4.4,4.4,0,0,1-1.59-2Z"/><path class="e6d3de3d-edec-4038-bcab-c263a5e65b00" d="M633,354.56a5.61,5.61,0,0,1-.39,2.08,3.15,3.15,0,0,1-1.3,1.56,3.22,3.22,0,0,1-1.69.9,8.71,8.71,0,0,1-1.69.19h-12.8a5.91,5.91,0,0,1-2.21-.35,3.45,3.45,0,0,1-1.36-1,5.74,5.74,0,0,1-.88-1.57c-.24-.62-.49-1.29-.74-2l-.85-2.88a37.58,37.58,0,0,1-4,3.39A31.26,31.26,0,0,1,594.36,360a25.19,25.19,0,0,1-6.41.8,43.21,43.21,0,0,1-11.34-1.47,42.08,42.08,0,0,1-10.13-4.19,41.19,41.19,0,0,1-8.54-6.52,42,42,0,0,1-6.59-8.47A40.79,40.79,0,0,1,547.09,330a41.9,41.9,0,0,1-1.49-11.28,41.12,41.12,0,0,1,3.31-16.53A41.51,41.51,0,0,1,571.39,280,42.55,42.55,0,0,1,588,276.8a29.9,29.9,0,0,1,7.51.9,28.93,28.93,0,0,1,6.37,2.43,25.16,25.16,0,0,1,5.22,3.68,27.88,27.88,0,0,1,4.1,4.63l1.88-5.82c.43-1.06.79-1.92,1.08-2.59a4.48,4.48,0,0,1,.9-1.47,2.49,2.49,0,0,1,1.21-.64,10.12,10.12,0,0,1,2-.16h9.68a8.71,8.71,0,0,1,1.69.19,3.29,3.29,0,0,1,1.69.9,4.07,4.07,0,0,1,1.3,1.6,5.07,5.07,0,0,1,.39,2.05Zm-64-35.81a23.23,23.23,0,0,0,1.32,7.9,18.67,18.67,0,0,0,3.81,6.36,17.87,17.87,0,0,0,5.94,4.25,18.44,18.44,0,0,0,7.7,1.57A20.74,20.74,0,0,0,602.34,333a19.12,19.12,0,0,0,4.32-6.36,20.53,20.53,0,0,0,0-15.7,20.53,20.53,0,0,0-10.81-11,20.13,20.13,0,0,0-8.09-1.63,17.74,17.74,0,0,0-13.64,6.08,20.1,20.1,0,0,0-3.81,6.52A23.07,23.07,0,0,0,569,318.75Z"/><path class="e6d3de3d-edec-4038-bcab-c263a5e65b00" d="M653.57,265.42a3.49,3.49,0,0,1,1.33-3,15.74,15.74,0,0,1,3.8-1.88l14.75-5.05a3.42,3.42,0,0,1,.62-.06h.55c1.6,0,2.68.45,3.22,1.37a7.08,7.08,0,0,1,.81,3.62L678.58,278h8.91a4.36,4.36,0,0,1,4.67,4.86v12.34a5.22,5.22,0,0,1-1.3,3.93,4.66,4.66,0,0,1-3.37,1.25h-8.91l.07,54a4.63,4.63,0,0,1-1.43,3.68,5.83,5.83,0,0,1-4,1.24H658.57q-5,0-5-4.92l-.07-54h-6.68q-5,0-5-5.18V282.88q0-4.86,5-4.86h6.68Z"/><path class="e6d3de3d-edec-4038-bcab-c263a5e65b00" d="M704.31,250.71a4.16,4.16,0,0,1,4.81-4.92h15.07a5.66,5.66,0,0,1,3.67,1.12,4.61,4.61,0,0,1,1.4,3.8v12.47a4.54,4.54,0,0,1-.36,1.67,7.19,7.19,0,0,1-1,1.72,5.7,5.7,0,0,1-1.59,1.38,4.21,4.21,0,0,1-2.12.54H709.12q-4.82,0-4.81-5.31Zm0,32.36a5.44,5.44,0,0,1,1.17-3.51,4.34,4.34,0,0,1,3.64-1.48H724a4.82,4.82,0,0,1,1.69.35,5.77,5.77,0,0,1,1.68,1,6.34,6.34,0,0,1,1.34,1.57,3.76,3.76,0,0,1,.55,2v71.3a4.77,4.77,0,0,1-1.36,3.68,5.59,5.59,0,0,1-3.9,1.24H709.12q-4.82,0-4.81-4.92Z"/><path class="e6d3de3d-edec-4038-bcab-c263a5e65b00" d="M742.31,318.75a41.48,41.48,0,0,1,12.45-29.83,41,41,0,0,1,8.6-6.49,43.73,43.73,0,0,1,10.24-4.16,44.57,44.57,0,0,1,11.47-1.47,42.86,42.86,0,0,1,16.6,3.23,41.73,41.73,0,0,1,22.6,22.19,40.81,40.81,0,0,1,3.35,16.53A41.51,41.51,0,0,1,826.1,330a42.47,42.47,0,0,1-4.3,10.08,41.42,41.42,0,0,1-6.62,8.47,41.89,41.89,0,0,1-8.61,6.52,42.64,42.64,0,0,1-10.16,4.19,43.21,43.21,0,0,1-11.34,1.47,44.14,44.14,0,0,1-11.47-1.47,42.55,42.55,0,0,1-10.24-4.19,41.88,41.88,0,0,1-15.23-15A42.44,42.44,0,0,1,743.84,330,41.52,41.52,0,0,1,742.31,318.75Zm23.72,0a23.23,23.23,0,0,0,1.33,7.9,19.06,19.06,0,0,0,3.77,6.36,17.55,17.55,0,0,0,5.91,4.25,18.78,18.78,0,0,0,7.83,1.57,18,18,0,0,0,7.63-1.57,17.07,17.07,0,0,0,5.79-4.25,18.61,18.61,0,0,0,3.63-6.36,24.89,24.89,0,0,0,0-15.7,20.05,20.05,0,0,0-3.63-6.52A17.08,17.08,0,0,0,792.5,300a17.53,17.53,0,0,0-7.63-1.63A18.34,18.34,0,0,0,777,300a17.54,17.54,0,0,0-5.91,4.45,20.56,20.56,0,0,0-3.77,6.52A23.07,23.07,0,0,0,766,318.75Z"/><path class="e6d3de3d-edec-4038-bcab-c263a5e65b00" d="M842.24,279.23a4,4,0,0,1,1.78-.9,8.87,8.87,0,0,1,1.79-.19h9.81a4.52,4.52,0,0,1,2,.42,4.21,4.21,0,0,1,1.43,1.11,6.19,6.19,0,0,1,.94,1.6c.23.59.47,1.21.68,1.84l1.36,5.62a15.38,15.38,0,0,1,3.15-4.08,24.28,24.28,0,0,1,5.4-3.83A34.46,34.46,0,0,1,878,278a37.12,37.12,0,0,1,9.43-1.12,30.06,30.06,0,0,1,13.22,2.81,29.25,29.25,0,0,1,9.87,7.66,33.63,33.63,0,0,1,6.18,11.32,44.61,44.61,0,0,1,2.1,13.84v41.88a5.53,5.53,0,0,1-1.06,3.68,4.27,4.27,0,0,1-3.41,1.24h-15c-1.87,0-3.14-.31-3.84-.93s-1-1.82-1-3.61V313.12a11.28,11.28,0,0,0-1.26-5.21,15.54,15.54,0,0,0-3.35-4.35,16.34,16.34,0,0,0-4.71-3,14,14,0,0,0-5.36-1.09,12.19,12.19,0,0,0-4.78,1,16,16,0,0,0-4.47,2.84,16.61,16.61,0,0,0-3.45,4.29A12.38,12.38,0,0,0,865.5,313v41.56a5.75,5.75,0,0,1-.43,2.17,3.42,3.42,0,0,1-1.26,1.67,6.14,6.14,0,0,1-1.59.7,6.88,6.88,0,0,1-1.73.19H845.81a5.2,5.2,0,0,1-4-1.34,5,5,0,0,1-1.24-3.58V282.86a4.58,4.58,0,0,1,.55-2.23,4.13,4.13,0,0,1,1.53-1.6Z"/><path class="e6d3de3d-edec-4038-bcab-c263a5e65b00" d="M462.46,373.05a1.69,1.69,0,0,1,.39-1.17,1.49,1.49,0,0,1,1.17-.44h22.65a15.32,15.32,0,0,1,4.6.67,15.64,15.64,0,0,1,4,1.83,15.45,15.45,0,0,1,3.26,2.79,17.85,17.85,0,0,1,4,7.46,16.94,16.94,0,0,1-.62,10.34,16.73,16.73,0,0,1-3.28,5.34,16.55,16.55,0,0,1-5.11,3.78,15.22,15.22,0,0,1-6.59,1.49H476.17v16.6q0,1.5-1.62,1.5H464a1.69,1.69,0,0,1-1.13-.37,1.39,1.39,0,0,1-.43-1.13Zm26.69,15.28a6.22,6.22,0,0,0-.38-2.1A5.67,5.67,0,0,0,486,383a4.85,4.85,0,0,0-2.28-.52h-7.52v11.65h7.52a5.21,5.21,0,0,0,2.3-.5,5.44,5.44,0,0,0,1.72-1.32,5.61,5.61,0,0,0,1.06-1.84A6.38,6.38,0,0,0,489.15,388.33Z"/><path class="e6d3de3d-edec-4038-bcab-c263a5e65b00" d="M509.27,381.53a2.48,2.48,0,0,1,.25-1.16,2.25,2.25,0,0,1,.66-.8,2.67,2.67,0,0,1,.92-.47,3.27,3.27,0,0,1,1-.16h5.35a2,2,0,0,1,1.42.52,4.57,4.57,0,0,1,.9,1.33,12.72,12.72,0,0,1,.66,1.78,14.43,14.43,0,0,0,.67,1.88l2.11-2.27a15.05,15.05,0,0,1,2.25-2,11.54,11.54,0,0,1,2.64-1.42,9.43,9.43,0,0,1,3.28-.54,18.44,18.44,0,0,1,3.41.28,14.27,14.27,0,0,1,2.85.83,15.08,15.08,0,0,1,2.68,1.37c.89.56,1.85,1.21,2.89,1.95a2.49,2.49,0,0,1,1.52,2.06,3.54,3.54,0,0,1-.6,1.78l-3.22,5.4a2.83,2.83,0,0,1-2.37,1.37,4,4,0,0,1-1.6-.39,11.17,11.17,0,0,0-3.11-2.18,8.68,8.68,0,0,0-3.59-.71,7.21,7.21,0,0,0-2.43.38,6.35,6.35,0,0,0-1.89,1.09,10.13,10.13,0,0,0-1.6,1.66c-.49.66-1,1.38-1.48,2.17v25.25a2.8,2.8,0,0,1-.66,2,3,3,0,0,1-2.18.68h-8c-1.85,0-2.77-.9-2.77-2.69Z"/><path class="e6d3de3d-edec-4038-bcab-c263a5e65b00" d="M547.61,401.12a23,23,0,0,1,3.17-11.66,23,23,0,0,1,3.62-4.61,22,22,0,0,1,4.7-3.53,23.69,23.69,0,0,1,5.58-2.28,24.22,24.22,0,0,1,6.25-.8A23.44,23.44,0,0,1,580,380a22.76,22.76,0,0,1,12.33,12.11,23.06,23.06,0,0,1,1,15.17,23,23,0,0,1-16.2,16,23.69,23.69,0,0,1-6.18.8,24.22,24.22,0,0,1-6.25-.8,22.71,22.71,0,0,1-16.23-16A22.35,22.35,0,0,1,547.61,401.12Zm12.94,0a12.38,12.38,0,0,0,.73,4.31,10.41,10.41,0,0,0,2.05,3.48,9.72,9.72,0,0,0,3.23,2.31,10.23,10.23,0,0,0,4.26.86,9.87,9.87,0,0,0,4.17-.86,9.39,9.39,0,0,0,3.15-2.31,10.28,10.28,0,0,0,2-3.48,13.62,13.62,0,0,0,0-8.56,11,11,0,0,0-2-3.56,9.29,9.29,0,0,0-3.15-2.42,9.59,9.59,0,0,0-4.17-.89,9.93,9.93,0,0,0-4.26.89,9.6,9.6,0,0,0-3.23,2.42,11.09,11.09,0,0,0-2.05,3.56A12.33,12.33,0,0,0,560.55,401.12Z"/><path class="e6d3de3d-edec-4038-bcab-c263a5e65b00" d="M633.8,421.7a6.48,6.48,0,0,0,.32-1.53c0-.56.07-1.14.07-1.74V418a1.84,1.84,0,0,0,0-.26,1.72,1.72,0,0,1,0-.26V417c-.69.72-1.38,1.43-2.09,2.13a14.25,14.25,0,0,1-2.35,1.86,12.28,12.28,0,0,1-2.93,1.33,12.73,12.73,0,0,1-3.79.51,24,24,0,0,1-8.86-1.61,21.08,21.08,0,0,1-7-4.48,20.4,20.4,0,0,1-4.65-6.89,23,23,0,0,1-1.66-8.82,24.06,24.06,0,0,1,1.66-8.95,22.31,22.31,0,0,1,4.65-7.26,21.36,21.36,0,0,1,7-4.84,22,22,0,0,1,8.86-1.76,15.13,15.13,0,0,1,4,.48,14.88,14.88,0,0,1,3.32,1.34,15.29,15.29,0,0,1,2.75,2,25.06,25.06,0,0,1,2.29,2.44l1-3.1.39-1.09a2.64,2.64,0,0,1,.46-.81,1.85,1.85,0,0,1,.73-.51,3.1,3.1,0,0,1,1.15-.17h5.28a2.87,2.87,0,0,1,1,.17,3.27,3.27,0,0,1,.9.49,2.34,2.34,0,0,1,.66.8,2.4,2.4,0,0,1,.25,1.12v35.5a24.5,24.5,0,0,1-1.81,9.7,20.82,20.82,0,0,1-4.94,7.19A21.19,21.19,0,0,1,633,438.2a26.94,26.94,0,0,1-9.21,1.54,27.74,27.74,0,0,1-4.11-.34,29.43,29.43,0,0,1-4.38-1,27.32,27.32,0,0,1-4.22-1.69,17.13,17.13,0,0,1-3.59-2.39,3.43,3.43,0,0,1-.9-1,2.28,2.28,0,0,1-.38-1.27,3.3,3.3,0,0,1,.68-1.85l3.36-4.57a4.6,4.6,0,0,1,.92-.78,1.69,1.69,0,0,1,.92-.26,3.63,3.63,0,0,1,2,.83,7.06,7.06,0,0,0,2,1.35,15.13,15.13,0,0,0,2.38.8,14.75,14.75,0,0,0,2.4.38c.8.06,1.51.09,2.15.09a14.19,14.19,0,0,0,3.33-.42,13,13,0,0,0,3.24-1.24,10.79,10.79,0,0,0,2.66-2A6.25,6.25,0,0,0,633.8,421.7ZM613.53,401a12.79,12.79,0,0,0,.72,4.34,10.36,10.36,0,0,0,2.08,3.47,9.7,9.7,0,0,0,3.24,2.3,10.26,10.26,0,0,0,4.2.84,11.49,11.49,0,0,0,4.27-.79,10.74,10.74,0,0,0,5.88-5.46,10.31,10.31,0,0,0,1-4.08v-1.15a10.37,10.37,0,0,0-1-4,11.71,11.71,0,0,0-2.39-3.35,11.45,11.45,0,0,0-3.49-2.3,10.78,10.78,0,0,0-4.27-.85,9.67,9.67,0,0,0-4.2.89,9.93,9.93,0,0,0-3.24,2.39,10.59,10.59,0,0,0-2.08,3.52A12.62,12.62,0,0,0,613.53,401Z"/><path class="e6d3de3d-edec-4038-bcab-c263a5e65b00" d="M655.66,381.53a2.61,2.61,0,0,1,.25-1.16,2.36,2.36,0,0,1,.66-.8,2.67,2.67,0,0,1,.92-.47,3.23,3.23,0,0,1,1-.16h5.35a2,2,0,0,1,1.42.52,4.57,4.57,0,0,1,.9,1.33,14.11,14.11,0,0,1,.66,1.78,16.07,16.07,0,0,0,.67,1.88l2.11-2.27a15.57,15.57,0,0,1,2.25-2,11.54,11.54,0,0,1,2.64-1.42,9.52,9.52,0,0,1,3.28-.54,18.63,18.63,0,0,1,3.42.28,14.66,14.66,0,0,1,2.85.83,15.79,15.79,0,0,1,2.68,1.37c.88.56,1.84,1.21,2.89,1.95a2.49,2.49,0,0,1,1.52,2.06,3.56,3.56,0,0,1-.61,1.78l-3.22,5.4a2.83,2.83,0,0,1-2.37,1.37,4,4,0,0,1-1.6-.39,11.14,11.14,0,0,0-3.1-2.18,8.73,8.73,0,0,0-3.6-.71,7.21,7.21,0,0,0-2.43.38,6.61,6.61,0,0,0-1.89,1.09,10.13,10.13,0,0,0-1.6,1.66c-.49.66-1,1.38-1.49,2.17v25.25a2.8,2.8,0,0,1-.65,2,3,3,0,0,1-2.18.68h-8c-1.84,0-2.77-.9-2.77-2.69Z"/><path class="e6d3de3d-edec-4038-bcab-c263a5e65b00" d="M741.71,420.66a3.11,3.11,0,0,1-.22,1.13,1.68,1.68,0,0,1-.71.85,1.76,1.76,0,0,1-.92.49,4.15,4.15,0,0,1-.92.11h-7a3.11,3.11,0,0,1-1.2-.19,1.91,1.91,0,0,1-.75-.54,3.21,3.21,0,0,1-.48-.86c-.13-.33-.26-.7-.4-1.1l-.47-1.57a19.42,19.42,0,0,1-2.17,1.85,17.91,17.91,0,0,1-2.7,1.63,17.28,17.28,0,0,1-3.15,1.14,13.91,13.91,0,0,1-3.49.44,23.82,23.82,0,0,1-6.19-.8,22.79,22.79,0,0,1-5.52-2.29,22.52,22.52,0,0,1-4.66-3.55,23,23,0,0,1-3.6-4.62,22.18,22.18,0,0,1-2.32-5.5,22.73,22.73,0,0,1-.82-6.16,22.48,22.48,0,0,1,1.81-9A22.68,22.68,0,0,1,708.11,380a23.31,23.31,0,0,1,9-1.76,16.61,16.61,0,0,1,4.09.49,16.44,16.44,0,0,1,3.47,1.32,14.67,14.67,0,0,1,2.86,2,15.61,15.61,0,0,1,2.23,2.53l1-3.17.59-1.42a2.56,2.56,0,0,1,.5-.8,1.24,1.24,0,0,1,.65-.34,4.6,4.6,0,0,1,1.1-.09h5.28a4.75,4.75,0,0,1,.92.1,1.84,1.84,0,0,1,.92.49,2.21,2.21,0,0,1,.71.87,2.83,2.83,0,0,1,.22,1.12ZM706.8,401.12a12.38,12.38,0,0,0,.73,4.31,10.13,10.13,0,0,0,2.07,3.48,10,10,0,0,0,3.24,2.31,10.11,10.11,0,0,0,4.2.86,11.38,11.38,0,0,0,8-3.17,10.37,10.37,0,0,0,2.36-3.48,11.2,11.2,0,0,0,0-8.56A11.08,11.08,0,0,0,717,390a9.71,9.71,0,0,0-7.44,3.31,10.78,10.78,0,0,0-2.07,3.56A12.33,12.33,0,0,0,706.8,401.12Z"/><path class="e6d3de3d-edec-4038-bcab-c263a5e65b00" d="M751.13,379.57a2.16,2.16,0,0,1,1-.49,4.18,4.18,0,0,1,1-.11h5.35a2.48,2.48,0,0,1,1.1.23,2.35,2.35,0,0,1,.78.61,3.16,3.16,0,0,1,.51.87c.13.32.26.66.38,1l.74,3.06a10.65,10.65,0,0,1,1.52-2.23,11,11,0,0,1,2.52-2.08,14.35,14.35,0,0,1,3.64-1.55,17.62,17.62,0,0,1,4.93-.61,17.42,17.42,0,0,1,4.06.44A12.39,12.39,0,0,1,782,380a12.83,12.83,0,0,1,2.74,2.09,19.57,19.57,0,0,1,2.34,2.83,11,11,0,0,1,2-2.26,16.76,16.76,0,0,1,3.17-2.16,21.19,21.19,0,0,1,4.11-1.6,18.34,18.34,0,0,1,4.82-.62,15.33,15.33,0,0,1,7,1.53,14.42,14.42,0,0,1,5,4.17,18,18,0,0,1,3,6.18,27.47,27.47,0,0,1,1,7.54v22.85a3,3,0,0,1-.59,2,2.34,2.34,0,0,1-1.86.68h-8.18a3.16,3.16,0,0,1-2.09-.51,2.6,2.6,0,0,1-.57-2V397.7a7.88,7.88,0,0,0-.48-2.78,6.81,6.81,0,0,0-1.33-2.25,6.06,6.06,0,0,0-2.07-1.51,6.82,6.82,0,0,0-2.71-.53,6.37,6.37,0,0,0-2.56.52,6.72,6.72,0,0,0-2.12,1.45,6.82,6.82,0,0,0-1.47,2.23,7.27,7.27,0,0,0-.55,2.87v22.85a3,3,0,0,1-.59,2,2.34,2.34,0,0,1-1.86.68H780a3.18,3.18,0,0,1-2.09-.51,2.6,2.6,0,0,1-.57-2V397.7a8.62,8.62,0,0,0-.44-2.78,6.54,6.54,0,0,0-1.28-2.25,6,6,0,0,0-2-1.51,6.74,6.74,0,0,0-5.17,0,7.25,7.25,0,0,0-2.2,1.43,8.18,8.18,0,0,0-1.63,2.22,7.26,7.26,0,0,0-.76,2.86v23a3.3,3.3,0,0,1-.23,1.18,1.9,1.9,0,0,1-.69.91,3.2,3.2,0,0,1-.87.38,3.32,3.32,0,0,1-.94.11h-8a2.86,2.86,0,0,1-2.2-.73,2.78,2.78,0,0,1-.67-2v-39a2.53,2.53,0,0,1,.3-1.22,2.2,2.2,0,0,1,.84-.87Z"/><path class="e6d3de3d-edec-4038-bcab-c263a5e65b00" d="M826.65,379.57a2.18,2.18,0,0,1,1-.49,4.33,4.33,0,0,1,1-.11H834a2.51,2.51,0,0,1,1.1.23,2.46,2.46,0,0,1,.78.61,3.43,3.43,0,0,1,.51.87c.13.32.26.66.37,1l.75,3.06a10.6,10.6,0,0,1,4-4.31,14.12,14.12,0,0,1,3.63-1.55,17.77,17.77,0,0,1,5-.61,17.51,17.51,0,0,1,4,.44,12.19,12.19,0,0,1,3.33,1.28,12.65,12.65,0,0,1,2.75,2.09,19.57,19.57,0,0,1,2.34,2.83,11,11,0,0,1,2-2.26,16.44,16.44,0,0,1,3.17-2.16,21,21,0,0,1,4.12-1.6,18.27,18.27,0,0,1,4.81-.62,15.4,15.4,0,0,1,7.06,1.53,14.39,14.39,0,0,1,5,4.17,18.53,18.53,0,0,1,3,6.18,28.27,28.27,0,0,1,1,7.54v22.85a3,3,0,0,1-.58,2,2.34,2.34,0,0,1-1.86.68h-8.18a3.22,3.22,0,0,1-2.1-.51,2.65,2.65,0,0,1-.56-2V397.7a8.11,8.11,0,0,0-.48-2.78,6.81,6.81,0,0,0-1.33-2.25,6.15,6.15,0,0,0-2.07-1.51,6.84,6.84,0,0,0-2.72-.53,6.32,6.32,0,0,0-2.55.52,6.72,6.72,0,0,0-2.12,1.45,6.84,6.84,0,0,0-1.48,2.23,7.45,7.45,0,0,0-.54,2.87v22.85a3.09,3.09,0,0,1-.58,2,2.38,2.38,0,0,1-1.87.68H855.5a3.16,3.16,0,0,1-2.09-.51,2.6,2.6,0,0,1-.57-2V397.7a8.62,8.62,0,0,0-.44-2.78,6.54,6.54,0,0,0-1.28-2.25,6.06,6.06,0,0,0-2-1.51,6.74,6.74,0,0,0-5.17,0,7.25,7.25,0,0,0-2.2,1.43,8.18,8.18,0,0,0-1.63,2.22,7.44,7.44,0,0,0-.77,2.86v23a3.28,3.28,0,0,1-.22,1.18,1.91,1.91,0,0,1-.7.91,3,3,0,0,1-.86.38,3.42,3.42,0,0,1-.94.11h-8a2.86,2.86,0,0,1-2.2-.73,2.78,2.78,0,0,1-.67-2v-39a2.53,2.53,0,0,1,.3-1.22,2.24,2.24,0,0,1,.83-.87Z"/><path class="e6d3de3d-edec-4038-bcab-c263a5e65b00" d="M939,417.94a23.78,23.78,0,0,1-7,4.41,21.83,21.83,0,0,1-8.25,1.59,24.34,24.34,0,0,1-9.18-1.75,23.87,23.87,0,0,1-7.59-4.83,23.15,23.15,0,0,1-5.17-7.27,21.57,21.57,0,0,1-1.91-9.1,23,23,0,0,1,6.32-16,21.37,21.37,0,0,1,4.49-3.61,22.06,22.06,0,0,1,11.51-3.18,21.32,21.32,0,0,1,5.71.77,22.39,22.39,0,0,1,5.19,2.16A22.74,22.74,0,0,1,941,388.8a20.14,20.14,0,0,1,2.25,4.95,18.62,18.62,0,0,1,.8,5.42c0,1.21,0,2.2,0,3a3.39,3.39,0,0,1-.55,1.83,2.75,2.75,0,0,1-1.66.94,16.61,16.61,0,0,1-3.38.26H912.87a8.54,8.54,0,0,0,1.43,3.74,9.07,9.07,0,0,0,2.5,2.38,10,10,0,0,0,3,1.28,13.28,13.28,0,0,0,3,.38,14.1,14.1,0,0,0,2.62-.26,19.86,19.86,0,0,0,2.6-.7,14.75,14.75,0,0,0,2.3-1,7.59,7.59,0,0,0,1.69-1.21,7.39,7.39,0,0,1,1-.68,1.67,1.67,0,0,1,1.8.09,7,7,0,0,1,1.08.91l3.76,4.19a2.26,2.26,0,0,1,.49.81,2.43,2.43,0,0,1,.11.75,1.93,1.93,0,0,1-.39,1.21A4.32,4.32,0,0,1,939,417.94Zm-17-29.06a6.86,6.86,0,0,0-2.68.54,10.56,10.56,0,0,0-2.43,1.45,13,13,0,0,0-3.51,4.39H931.4a23,23,0,0,0-1.61-2.51,10.88,10.88,0,0,0-2-2,8.49,8.49,0,0,0-2.54-1.36A10.6,10.6,0,0,0,921.91,388.88Z"/></svg>